<svg width="39" height="39" viewBox="0 0 39 39" fill="none" xmlns="http://www.w3.org/2000/svg">
    <path d="M19.0244 38.0509C8.5338 38.0509 0 29.5161 0 19.0265C0 8.53381 8.53481 0 19.0244 0C29.5171 0 38.0509 8.53483 38.0509 19.0265C38.052 29.5161 29.5171 38.0509 19.0244 38.0509ZM19.0244 2.0258C9.65259 2.0258 2.02679 9.65158 2.02679 19.0255C2.02679 28.3973 9.65259 36.0231 19.0244 36.0231C28.3983 36.0231 36.0242 28.3973 36.0242 19.0255C36.0252 9.65158 28.3983 2.0258 19.0244 2.0258Z"
          fill="url(#paint0_linear)"/>
    <path d="M20.1014 29.6688H16.1097V20.2533H14.1123V17.0095H16.1097V15.0617C16.1097 12.4137 17.2356 10.8379 20.4369 10.8379H23.1011V14.0838H21.4361C20.1896 14.0838 20.1055 14.5368 20.1055 15.384L20.1014 17.0095H23.1203L22.7657 20.2533H20.1014V29.6688Z"
          fill="url(#paint1_linear)"/>
    <defs>
        <linearGradient id="paint0_linear" x1="5.57863" y1="32.4719" x2="32.4731" y2="5.57729"
                        gradientUnits="userSpaceOnUse">
            <stop stop-color="#EBCC70"/>
            <stop offset="0.5" stop-color="#F4EADC"/>
            <stop offset="1" stop-color="#EBCC70"/>
        </linearGradient>
        <linearGradient id="paint1_linear" x1="12.9201" y1="26.4798" x2="25.8311" y2="13.5687"
                        gradientUnits="userSpaceOnUse">
            <stop stop-color="#EBCC70"/>
            <stop offset="0.5" stop-color="#F4EADC"/>
            <stop offset="1" stop-color="#EBCC70"/>
        </linearGradient>
    </defs>
</svg>
