<svg width="39" height="39" viewBox="0 0 39 39" fill="none" xmlns="http://www.w3.org/2000/svg">
    <path d="M19.0244 38.0509C8.5338 38.0509 0 29.5161 0 19.0245C0 8.5338 8.53481 0 19.0244 0C29.5171 0 38.0509 8.53481 38.0509 19.0245C38.052 29.5161 29.5171 38.0509 19.0244 38.0509ZM19.0244 2.02679C9.65259 2.02679 2.02679 9.65259 2.02679 19.0245C2.02679 28.3983 9.65259 36.0241 19.0244 36.0241C28.3983 36.0241 36.0242 28.3983 36.0242 19.0245C36.0252 9.65259 28.3983 2.02679 19.0244 2.02679Z"
          fill="url(#paint0_linear)"/>
    <path d="M19.0245 11.641C21.4293 11.641 21.7141 11.6512 22.6646 11.6948C23.5432 11.7343 24.0185 11.8812 24.3367 12.0039C24.7563 12.168 25.0573 12.3626 25.3714 12.6767C25.6866 12.9939 25.8822 13.2919 26.0464 13.7135C26.169 14.0307 26.3159 14.5069 26.3554 15.3855C26.399 16.3341 26.4091 16.6209 26.4091 19.0236C26.4091 21.4284 26.399 21.7132 26.3554 22.6637C26.3159 23.5423 26.169 24.0197 26.0464 24.3358C25.8822 24.7554 25.6866 25.0564 25.3714 25.3705C25.0563 25.6847 24.7563 25.8813 24.3367 26.0434C24.0185 26.1681 23.5432 26.315 22.6646 26.3545C21.7141 26.3981 21.4293 26.4082 19.0245 26.4082C16.6198 26.4082 16.335 26.3981 15.3844 26.3545C14.5079 26.315 14.0305 26.1681 13.7144 26.0434C13.2928 25.8813 12.9938 25.6847 12.6797 25.3705C12.3625 25.0554 12.1689 24.7554 12.0048 24.3358C11.8821 24.0187 11.7352 23.5423 11.6936 22.6637C11.6501 21.7132 11.642 21.4284 11.642 19.0236C11.642 16.6209 11.6501 16.3341 11.6936 15.3855C11.7352 14.5069 11.8821 14.0296 12.0048 13.7135C12.1689 13.2919 12.3635 12.9929 12.6797 12.6767C12.9949 12.3616 13.2928 12.168 13.7144 12.0039C14.0316 11.8812 14.5079 11.7343 15.3844 11.6948C16.335 11.6512 16.6198 11.641 19.0245 11.641ZM19.0245 10.0176C16.5802 10.0176 16.2732 10.0297 15.3115 10.0733C14.3538 10.1149 13.6981 10.2669 13.1266 10.4908C12.5348 10.7229 12.0321 11.0289 11.5315 11.5296C11.0309 12.0302 10.7218 12.5308 10.4928 13.1247C10.2708 13.6962 10.1188 14.3518 10.0732 15.3095C10.0296 16.2692 10.0195 16.5762 10.0195 19.0226C10.0195 21.4689 10.0296 21.776 10.0732 22.7377C10.1188 23.6933 10.2708 24.349 10.4928 24.9226C10.7228 25.5144 11.0309 26.017 11.5315 26.5176C12.0321 27.0183 12.5348 27.3274 13.1266 27.5564C13.6981 27.7783 14.3538 27.9303 15.3115 27.9739C16.2732 28.0175 16.5802 28.0276 19.0245 28.0276C21.4709 28.0276 21.7779 28.0175 22.7376 27.9739C23.6973 27.9303 24.351 27.7783 24.9245 27.5564C25.5164 27.3264 26.019 27.0183 26.5196 26.5176C27.0202 26.017 27.3273 25.5144 27.5583 24.9226C27.7803 24.349 27.9323 23.6933 27.9758 22.7377C28.0194 21.776 28.0316 21.4689 28.0316 19.0226C28.0316 16.5762 28.0194 16.2692 27.9758 15.3095C27.9323 14.3518 27.7803 13.6962 27.5583 13.1247C27.3263 12.5308 27.0202 12.0302 26.5196 11.5296C26.019 11.0289 25.5164 10.7219 24.9245 10.4908C24.351 10.2669 23.6973 10.1149 22.7376 10.0733C21.7779 10.0297 21.4709 10.0176 19.0245 10.0176ZM19.0428 14.4137C16.488 14.4137 14.4156 16.4861 14.4156 19.0408C14.4156 21.5976 16.488 23.67 19.0428 23.67C21.5996 23.67 23.672 21.5976 23.672 19.0408C23.672 16.4861 21.5996 14.4137 19.0428 14.4137ZM19.0428 22.0456C17.3839 22.0456 16.0401 20.7018 16.0401 19.0408C16.0401 17.3819 17.3839 16.0361 19.0428 16.0361C20.7037 16.0361 22.0475 17.3819 22.0475 19.0408C22.0475 20.7018 20.7037 22.0456 19.0428 22.0456ZM24.886 14.1999C24.886 14.7917 24.4067 15.271 23.8148 15.271C23.223 15.271 22.7416 14.7917 22.7416 14.1999C22.7416 13.606 23.223 13.1267 23.8148 13.1267C24.4067 13.1267 24.886 13.606 24.886 14.1999Z"
          fill="url(#paint1_linear)"/>
    <defs>
        <linearGradient id="paint0_linear" x1="5.57914" y1="32.4727" x2="32.4734" y2="5.57828"
                        gradientUnits="userSpaceOnUse">
            <stop stop-color="#EBCC70"/>
            <stop offset="0.5" stop-color="#F4EADC"/>
            <stop offset="1" stop-color="#EBCC70"/>
        </linearGradient>
        <linearGradient id="paint1_linear" x1="11.5319" y1="26.5191" x2="26.521" y2="11.5301"
                        gradientUnits="userSpaceOnUse">
            <stop stop-color="#EBCC70"/>
            <stop offset="0.5" stop-color="#F4EADC"/>
            <stop offset="1" stop-color="#EBCC70"/>
        </linearGradient>
    </defs>
</svg>
