<svg width="39" height="39" viewBox="0 0 39 39" fill="none" xmlns="http://www.w3.org/2000/svg">
    <path d="M19.8038 38.051C9.31312 38.051 0.779297 29.5162 0.779297 19.0265C0.779297 8.53381 9.31414 0 19.8038 0C30.2965 0 38.8303 8.53482 38.8303 19.0265C38.8313 29.5162 30.2965 38.051 19.8038 38.051ZM19.8038 2.02577C10.4319 2.02577 2.80609 9.65161 2.80609 19.0255C2.80609 28.3974 10.4319 36.0232 19.8038 36.0232C29.1777 36.0232 36.8035 28.3974 36.8035 19.0255C36.8045 9.65161 29.1777 2.02577 19.8038 2.02577Z"
          fill="url(#paint0_linear)"/>
    <path fill-rule="evenodd" clip-rule="evenodd"
          d="M16.8574 17.0577C16.8574 14.3458 19.0585 12.1437 21.7714 12.1437C24.4842 12.1437 26.6864 14.3458 26.6864 17.0577C26.6864 19.7706 24.4842 21.9727 21.7714 21.9727C19.0585 21.9717 16.8574 19.7706 16.8574 17.0577ZM11.4165 25.2034C10.8065 25.8134 10.8065 26.8035 11.4165 27.4136C12.0256 28.0237 13.0167 28.0237 13.6216 27.4136L18.1384 22.8999C19.1923 23.5566 20.4347 23.9376 21.7714 23.9376C25.5726 23.9376 28.6513 20.86 28.6513 17.0577C28.6513 13.2564 25.5726 10.1777 21.7714 10.1777C17.9701 10.1777 14.8914 13.2564 14.8914 17.0577C14.8914 18.3903 15.2735 19.6368 15.9292 20.6907L11.4165 25.2034ZM22.2234 14.8961C23.0726 15.0927 23.7485 15.8163 23.9451 16.6067C24.011 16.9766 24.3343 17.2553 24.7194 17.2553C25.1521 17.2553 25.5057 16.9016 25.5057 16.4699C25.5057 15.9034 25.0295 15.0431 24.3819 14.3985C23.7445 13.7692 22.9855 13.3253 22.3612 13.3253C21.9285 13.3253 21.5748 13.6912 21.5748 14.1239C21.5738 14.506 21.8535 14.8292 22.2234 14.8961Z"
          fill="url(#paint1_linear)"/>
    <defs>
        <linearGradient id="paint0_linear" x1="6.35784" y1="32.4721" x2="33.2522" y2="5.57776"
                        gradientUnits="userSpaceOnUse">
            <stop stop-color="#EBCC70"/>
            <stop offset="0.5" stop-color="#F4EADC"/>
            <stop offset="1" stop-color="#EBCC70"/>
        </linearGradient>
        <linearGradient id="paint1_linear" x1="11.416" y1="27.4127" x2="26.6365" y2="12.1922"
                        gradientUnits="userSpaceOnUse">
            <stop stop-color="#EBCC70"/>
            <stop offset="0.5" stop-color="#F4EADC"/>
            <stop offset="1" stop-color="#EBCC70"/>
        </linearGradient>
    </defs>
</svg>
