<svg width="39" height="39" viewBox="0 0 39 39" fill="none" xmlns="http://www.w3.org/2000/svg">
    <path d="M19.9209 38.0509C9.43028 38.0509 0.896484 29.5161 0.896484 19.0265C0.896484 8.53381 9.4313 0 19.9209 0C30.4136 0 38.9474 8.53483 38.9474 19.0265C38.9484 29.5171 30.4136 38.0509 19.9209 38.0509ZM19.9209 2.02679C10.5491 2.02679 2.92327 9.6526 2.92327 19.0265C2.92327 28.3984 10.5491 36.0241 19.9209 36.0241C29.2948 36.0241 36.9206 28.3984 36.9206 19.0265C36.9216 9.6526 29.2948 2.02679 19.9209 2.02679Z"
          fill="url(#paint0_linear)"/>
    <path d="M26.4582 14.448C25.6454 14.448 24.8661 14.1247 24.2895 13.5471C23.7159 12.9715 23.3907 12.1891 23.3907 11.3734C23.3907 11.3166 23.3957 11.2528 23.3988 11.1778C23.3998 11.1656 23.4007 11.1545 23.4007 11.1413C23.4058 11.0541 23.4109 10.9558 23.4089 10.8575C23.4038 10.6751 23.3764 10.434 23.2102 10.2668C23.0511 10.1066 22.8059 10.061 22.6154 10.0438C22.4634 10.0306 22.2982 10.0327 22.1716 10.0347C22.1341 10.0347 22.0995 10.0357 22.0681 10.0357C22.0367 10.0357 22.0043 10.0357 21.9658 10.0347C21.8412 10.0327 21.6851 10.0306 21.5392 10.0438C21.3547 10.062 21.1237 10.1077 20.9646 10.2668C20.7994 10.433 20.771 10.6751 20.7669 10.8575C20.7649 10.9558 20.77 11.0541 20.7741 11.1413C20.7741 11.1545 20.7751 11.1646 20.7761 11.1778C20.7801 11.2528 20.7842 11.3166 20.7842 11.3734V22.3251C20.7842 22.9342 20.6048 23.529 20.2674 24.0327C19.9309 24.5384 19.4516 24.9336 18.8912 25.1646C18.3318 25.3987 17.7146 25.4585 17.1197 25.34C16.5249 25.2224 15.9787 24.9295 15.549 24.4999C15.1203 24.0692 14.8285 23.5219 14.7099 22.9251C14.5913 22.3292 14.6521 21.71 14.8842 21.1486C15.1152 20.5861 15.5095 20.1068 16.0131 19.7693C16.5168 19.4319 17.1107 19.2515 17.7167 19.2515C17.7663 19.2515 17.8211 19.2535 17.8829 19.2556C17.9062 19.2566 17.9305 19.2576 17.9569 19.2586C18.047 19.2606 18.1484 19.2636 18.2497 19.2586C18.4362 19.2495 18.6824 19.214 18.8466 19.0498C19.0098 18.8867 19.0442 18.6445 19.0523 18.46C19.0564 18.3617 19.0533 18.2624 19.0503 18.1733C19.0503 18.152 19.0493 18.1307 19.0482 18.1104C19.0452 18.0466 19.0432 17.9878 19.0432 17.9371C19.0432 17.9229 19.0432 17.9077 19.0432 17.8925C19.0432 17.7578 19.0432 17.5834 19.0209 17.4162C18.9976 17.2348 18.9398 17.018 18.7878 16.866C18.6307 16.7089 18.4098 16.6623 18.2294 16.646C18.0947 16.6329 17.9487 16.6369 17.8291 16.639C17.7886 16.64 17.7501 16.64 17.7177 16.64C16.5958 16.64 15.4994 16.9734 14.566 17.5986C13.6337 18.2239 12.905 19.1117 12.4753 20.1514C12.0457 21.1911 11.9322 22.3342 12.1531 23.4358C12.372 24.5394 12.9122 25.5528 13.7057 26.3483C14.4991 27.1428 15.5105 27.6849 16.6121 27.9059C17.7126 28.1237 18.8537 28.0113 19.8904 27.5806C20.9271 27.1509 21.8138 26.4223 22.4381 25.4879C23.0623 24.5536 23.3926 23.453 23.3926 22.3281V16.1637C24.3037 16.7555 25.3688 17.0697 26.4602 17.0636C26.518 17.0636 26.5849 17.0676 26.6609 17.0717C26.67 17.0727 26.6781 17.0737 26.6872 17.0737C26.7724 17.0788 26.8686 17.0848 26.9639 17.0828C27.1423 17.0808 27.3824 17.0524 27.5476 16.8872C27.7026 16.7312 27.7584 16.4961 27.7797 16.3056C27.802 16.1272 27.8019 15.9397 27.8019 15.8029C27.8009 15.7867 27.8009 15.7725 27.8009 15.7583C27.8009 15.7431 27.8009 15.7289 27.8019 15.7137C27.8019 15.579 27.802 15.4026 27.7797 15.2354C27.7574 15.053 27.6996 14.8361 27.5476 14.6831L27.3986 14.8321L27.5476 14.6831C27.3905 14.526 27.1625 14.4784 26.979 14.4612C26.8372 14.447 26.6842 14.449 26.5615 14.4511C26.524 14.448 26.4896 14.448 26.4582 14.448Z"
          fill="url(#paint1_linear)"/>
    <defs>
        <linearGradient id="paint0_linear" x1="6.47501" y1="32.4727" x2="33.3695" y2="5.57835"
                        gradientUnits="userSpaceOnUse">
            <stop stop-color="#EBCC70"/>
            <stop offset="0.5" stop-color="#F4EADC"/>
            <stop offset="1" stop-color="#EBCC70"/>
        </linearGradient>
        <linearGradient id="paint1_linear" x1="13.5058" y1="26.1495" x2="26.2978" y2="13.3574"
                        gradientUnits="userSpaceOnUse">
            <stop stop-color="#EBCC70"/>
            <stop offset="0.5" stop-color="#F4EADC"/>
            <stop offset="1" stop-color="#EBCC70"/>
        </linearGradient>
    </defs>
</svg>
