<svg width="39" height="39" viewBox="0 0 39 39" fill="none" xmlns="http://www.w3.org/2000/svg">
    <path d="M19.0371 38.0509C8.54649 38.0509 0.0126953 29.5161 0.0126953 19.0265C0.0126953 8.53378 8.54751 0 19.0371 0C29.5298 0 38.0636 8.5348 38.0636 19.0265C38.0646 29.5161 29.5298 38.0509 19.0371 38.0509ZM19.0371 2.02577C9.66528 2.02577 2.03948 9.65158 2.03948 19.0255C2.03948 28.3973 9.66528 36.0231 19.0371 36.0231C28.411 36.0231 36.0368 28.3973 36.0368 19.0255C36.0378 9.65259 28.411 2.02577 19.0371 2.02577Z"
          fill="url(#paint0_linear)"/>
    <path fill-rule="evenodd" clip-rule="evenodd"
          d="M20.4406 24.2876C20.1498 24.1244 19.9532 23.9076 19.8478 23.6319C19.7424 23.3603 19.6897 22.7442 19.6897 21.7815V17.5282H23.7869V14.9238H19.6897V10.7324H17.2332C17.1228 11.5877 16.9201 12.2931 16.6272 12.8454C16.3364 13.4007 15.9462 13.876 15.4639 14.2712C14.9784 14.6654 14.3987 14.9684 13.7188 15.1802V17.5282H15.629V23.3451C15.629 24.1042 15.7121 24.6818 15.8773 25.0811C16.0425 25.4803 16.3414 25.8583 16.7691 26.212C17.1967 26.5667 17.7146 26.8383 18.3216 27.0308C18.9276 27.2214 19.6258 27.3176 20.4163 27.3176C21.1105 27.3176 21.7581 27.2518 22.357 27.116C22.9549 26.9812 23.6227 26.7461 24.3614 26.4147V23.7971C23.497 24.3423 22.6265 24.6159 21.753 24.6159C21.2574 24.6169 20.8207 24.5085 20.4406 24.2876Z"
          fill="url(#paint1_linear)"/>
    <defs>
        <linearGradient id="paint0_linear" x1="5.59122" y1="32.4723" x2="32.4855" y2="5.57805"
                        gradientUnits="userSpaceOnUse">
            <stop stop-color="#EBCC70"/>
            <stop offset="0.5" stop-color="#F4EADC"/>
            <stop offset="1" stop-color="#EBCC70"/>
        </linearGradient>
        <linearGradient id="paint1_linear" x1="14.9492" y1="24.4211" x2="24.1632" y2="15.2071"
                        gradientUnits="userSpaceOnUse">
            <stop stop-color="#EBCC70"/>
            <stop offset="0.5" stop-color="#F4EADC"/>
            <stop offset="1" stop-color="#EBCC70"/>
        </linearGradient>
    </defs>
</svg>
