<svg width="100" height="100" viewBox="0 0 100 100" fill="none" xmlns="http://www.w3.org/2000/svg">
<path d="M49.9996 12.2637C38.3042 12.2637 28.8232 21.7447 28.8232 33.4403C28.8232 34.415 29.6132 35.205 30.5879 35.205C31.5626 35.205 32.3526 34.415 32.3526 33.4403C32.3526 23.6943 40.2536 15.7933 49.9996 15.7933C50.9742 15.7933 51.7642 15.0033 51.7642 14.0287C51.7642 13.054 50.9742 12.2637 49.9996 12.2637Z" fill="url(#paint0_linear)"/>
<path d="M50 5.20508C34.406 5.20508 21.7646 17.8464 21.7646 33.4404C21.7646 46.5964 30.7636 57.6487 42.9413 60.7833V65.205C42.9413 66.1797 43.7313 66.9697 44.706 66.9697H48.2353V67.169C44.6993 67.9717 42.0586 71.132 42.0586 74.911C42.0586 79.2966 45.6143 82.8523 50 82.8523C52.4366 82.8523 54.4116 84.8273 54.4116 87.264C54.4116 89.7003 52.4363 91.6756 50 91.6756C49.0253 91.6756 48.2353 92.4653 48.2353 93.4403C48.2353 94.415 49.0253 95.205 50 95.205C54.3856 95.205 57.941 91.6493 57.941 87.264C57.941 82.878 54.3856 79.3226 50 79.3226C47.5633 79.3226 45.5883 77.3473 45.5883 74.911C45.5883 72.4747 47.5633 70.4997 50 70.4997C50.9746 70.4997 51.7646 69.7093 51.7646 68.7347V66.97H55.2943C56.269 66.97 57.059 66.18 57.059 65.2053V60.7837C69.2363 57.649 78.2353 46.5967 78.2353 33.4407C78.2353 17.8464 65.594 5.20508 50 5.20508ZM53.5293 57.8943V59.911V61.4567V63.4407H46.4706V61.4567V59.911V57.8943C34.498 56.1813 25.2943 45.8867 25.2943 33.4407C25.2943 19.7961 36.3557 8.73474 50.0003 8.73474C63.645 8.73474 74.706 19.7961 74.706 33.4407C74.7056 45.8867 65.502 56.1813 53.5293 57.8943Z" fill="url(#paint1_linear)"/>
<defs>
<linearGradient id="paint0_linear" x1="21.9655" y1="23.7344" x2="78.368" y2="23.7344" gradientUnits="userSpaceOnUse">
<stop stop-color="#E5C851"/>
<stop offset="0.2598" stop-color="#FCF9EA"/>
<stop offset="0.513" stop-color="#D1B028"/>
<stop offset="0.7588" stop-color="white"/>
<stop offset="1" stop-color="#E6C954"/>
</linearGradient>
<linearGradient id="paint1_linear" x1="21.9573" y1="50.2051" x2="78.3454" y2="50.2051" gradientUnits="userSpaceOnUse">
<stop stop-color="#E5C851"/>
<stop offset="0.2598" stop-color="#FCF9EA"/>
<stop offset="0.513" stop-color="#D1B028"/>
<stop offset="0.7588" stop-color="white"/>
<stop offset="1" stop-color="#E6C954"/>
</linearGradient>
</defs>
</svg>
