<svg viewBox="0 0 70 90" fill="none" xmlns="http://www.w3.org/2000/svg">
<path d="M51.3639 16.3637C51.3639 7.32633 44.0379 0 35.0002 0C25.9625 0 18.6365 7.32633 18.6365 16.3637V22.5H0.227539V26.591V81.818C0.227539 86.337 3.89087 90 8.40921 90H61.5909C66.1095 90 69.7729 86.337 69.7729 81.818V26.591V22.5H51.3635V16.3637H51.3639ZM22.7275 16.3637C22.7275 9.58567 28.2222 4.091 35.0002 4.091C41.7782 4.091 47.2729 9.58567 47.2729 16.3637V22.5H22.7272V16.3637H22.7275ZM65.6822 26.591V81.818C65.6822 84.0773 63.8502 85.909 61.5912 85.909H8.40921C6.15021 85.909 4.31854 84.0773 4.31854 81.818V26.591H18.6369H22.7275H47.2732H51.3639H65.6822Z" fill="url(#paint0_linear)"/>
<path d="M47.2732 34.7734H22.7276C18.2089 34.7734 14.5459 38.4364 14.5459 42.9551V53.1828C14.5459 57.7014 18.2092 61.3644 22.7276 61.3644H47.2732C51.7919 61.3644 55.4549 57.7014 55.4549 53.1828V42.9551C55.4549 38.4368 51.7919 34.7734 47.2732 34.7734ZM51.3642 53.1828C51.3642 55.4418 49.5322 57.2734 47.2736 57.2734H22.7279C20.4689 57.2734 18.6372 55.4418 18.6372 53.1828V42.9551C18.6372 40.6958 20.4692 38.8644 22.7279 38.8644H47.2736C49.5322 38.8644 51.3642 40.6958 51.3642 42.9551V53.1828Z" fill="url(#paint1_linear)"/>
<defs>
<linearGradient id="paint0_linear" x1="0.227406" y1="45" x2="69.773" y2="45" gradientUnits="userSpaceOnUse">
<stop stop-color="#E5C851"/>
<stop offset="0.2598" stop-color="#FCF9EA"/>
<stop offset="0.513" stop-color="#D1B028"/>
<stop offset="0.7588" stop-color="white"/>
<stop offset="1" stop-color="#E6C954"/>
</linearGradient>
<linearGradient id="paint1_linear" x1="14.546" y1="48.0691" x2="55.455" y2="48.0691" gradientUnits="userSpaceOnUse">
<stop stop-color="#E5C851"/>
<stop offset="0.2598" stop-color="#FCF9EA"/>
<stop offset="0.513" stop-color="#D1B028"/>
<stop offset="0.7588" stop-color="white"/>
<stop offset="1" stop-color="#E6C954"/>
</linearGradient>
</defs>
</svg>
