<svg viewBox="0 0 100 100" fill="none" xmlns="http://www.w3.org/2000/svg">
<path d="M87.1737 26.5206H38.261V22.6076C38.261 18.2856 34.757 14.7812 30.4347 14.7812H22.6087C18.2867 14.7812 14.7823 18.2852 14.7823 22.6076V26.5206H12.8257C8.504 26.5206 5 30.0246 5 34.3466V77.3899C5 81.7122 8.504 85.2162 12.826 85.2162H87.1737C91.496 85.2162 95 81.7122 95 77.3899V34.3466C95 30.0246 91.496 26.5206 87.1737 26.5206ZM78.3693 32.3903C79.9903 32.3903 81.3043 33.7043 81.3043 35.3249C81.3043 36.9459 79.9907 38.2599 78.3693 38.2599C76.7487 38.2599 75.4347 36.9462 75.4347 35.3249C75.435 33.7043 76.7487 32.3903 78.3693 32.3903ZM18.6957 22.6076C18.6957 20.4466 20.448 18.6946 22.6087 18.6946H30.4347C32.5957 18.6946 34.3477 20.4466 34.3477 22.6076V26.5206H18.6957V22.6076ZM8.913 34.3466C8.913 32.1856 10.665 30.4336 12.826 30.4336H73.579C72.3097 31.6766 71.5217 33.4082 71.5217 35.3249C71.5217 37.2416 72.3097 38.9733 73.579 40.2163H8.913V34.3466ZM91.087 77.3903C91.087 79.5513 89.335 81.3033 87.174 81.3033H12.826C10.6653 81.3033 8.913 79.5513 8.913 77.3903V44.1293H91.0867V77.3903H91.087ZM91.087 40.2163H83.1603C84.4293 38.9733 85.2177 37.2416 85.2177 35.3249C85.2177 33.4082 84.4293 31.6766 83.1603 30.4336H87.174C89.335 30.4336 91.087 32.1856 91.087 34.3466V40.2163Z" fill="url(#paint0_linear)"/>
<path d="M50 46.0859C41.3553 46.0859 34.3477 53.0936 34.3477 61.7383C34.3477 70.3826 41.3553 77.3903 50 77.3903C58.645 77.3903 65.652 70.3826 65.652 61.7383C65.652 53.0936 58.645 46.0859 50 46.0859ZM50 73.4773C43.5167 73.4773 38.261 68.2213 38.261 61.7383C38.261 55.2549 43.5167 49.9989 50 49.9989C56.4833 49.9989 61.7393 55.2549 61.7393 61.7383C61.7393 68.2213 56.4833 73.4773 50 73.4773Z" fill="url(#paint1_linear)"/>
<defs>
<linearGradient id="paint0_linear" x1="5" y1="49.9989" x2="95" y2="49.9989" gradientUnits="userSpaceOnUse">
<stop stop-color="#E5C851"/>
<stop offset="0.2598" stop-color="#FCF9EA"/>
<stop offset="0.513" stop-color="#D1B028"/>
<stop offset="0.7588" stop-color="white"/>
<stop offset="1" stop-color="#E6C954"/>
</linearGradient>
<linearGradient id="paint1_linear" x1="34.3478" y1="61.7379" x2="65.652" y2="61.7379" gradientUnits="userSpaceOnUse">
<stop stop-color="#E5C851"/>
<stop offset="0.2598" stop-color="#FCF9EA"/>
<stop offset="0.513" stop-color="#D1B028"/>
<stop offset="0.7588" stop-color="white"/>
<stop offset="1" stop-color="#E6C954"/>
</linearGradient>
</defs>
</svg>
