<svg viewBox="0 0 90 90" fill="none" xmlns="http://www.w3.org/2000/svg">
<path d="M77.956 14.3167C77.956 14.3167 77.9563 14.3167 77.956 14.3167L84.5127 7.76033L85.098 7.17533L85.649 6.62367L87.922 4.351C88.5493 3.72333 88.5493 2.70567 87.922 2.078C87.2943 1.45033 86.2763 1.45033 85.649 2.078L83.3763 4.351L82.8253 4.90233L75.6833 12.0437L75.661 12.066C67.625 4.58133 56.8483 0 45 0C20.147 0 0 20.147 0 45C0 69.853 20.147 90 45 90C69.853 90 90 69.853 90 45C90 33.1517 85.4187 22.3753 77.934 14.339L77.956 14.3167ZM86.7857 45C86.7857 68.0773 68.0777 86.7857 45 86.7857C21.9223 86.7857 3.21433 68.0773 3.21433 45C3.21433 21.9223 21.9223 3.21433 45 3.21433C55.9607 3.21433 65.9337 7.43633 73.3867 14.3403L71.1863 16.5407L69.1877 18.5393L64.286 23.441C59.168 18.859 52.41 16.0713 45 16.0713C29.023 16.0713 16.0713 29.023 16.0713 45C16.0713 60.977 29.023 73.9287 45 73.9287C60.977 73.9287 73.9287 60.977 73.9287 45C73.9287 37.59 71.141 30.8317 66.5593 25.7133L75.66 16.6133C82.5633 24.0663 86.7857 34.0393 86.7857 45ZM50.8773 48.2143L47.4677 44.805L52.858 39.4147C53.9803 40.991 54.6427 42.9177 54.6427 45C54.6427 50.3257 50.3253 54.643 44.9997 54.643C39.674 54.643 35.357 50.3257 35.357 45C35.357 39.6743 39.6743 35.357 45 35.357C47.0827 35.357 49.009 36.0193 50.5853 37.1417L45.195 42.5323L41.7857 39.1227V48.2137H50.8773V48.2143ZM52.8817 34.8453C50.7047 33.1533 47.971 32.143 45 32.143C37.899 32.143 32.143 37.8993 32.143 45C32.143 52.1007 37.8993 57.857 45 57.857C52.1007 57.857 57.857 52.1007 57.857 45C57.857 42.0293 56.8467 39.2957 55.1547 37.1183L64.2827 27.99C68.285 32.5233 70.7143 38.4773 70.7143 44.9997C70.7143 59.2013 59.202 70.714 45 70.714C30.798 70.714 19.2857 59.2017 19.2857 45C19.2857 30.7987 30.7983 19.2857 45 19.2857C51.5223 19.2857 57.4767 21.7153 62.0097 25.7173L52.8817 34.8453Z" fill="url(#paint0_linear)"/>
<defs>
<linearGradient id="paint0_linear" x1="0" y1="45" x2="90" y2="45" gradientUnits="userSpaceOnUse">
<stop stop-color="#E5C851"/>
<stop offset="0.2598" stop-color="#FCF9EA"/>
<stop offset="0.513" stop-color="#D1B028"/>
<stop offset="0.7588" stop-color="white"/>
<stop offset="1" stop-color="#E6C954"/>
</linearGradient>
</defs>
</svg>
