<svg viewBox="0 0 90 72" fill="none" xmlns="http://www.w3.org/2000/svg">
<path d="M27.8655 15.5246L24.8172 12.4766C20.1372 17.1572 17.2422 23.6229 17.2422 30.7652C17.2422 37.9072 20.1372 44.3729 24.8172 49.0535L27.8655 46.0055C23.9652 42.1052 21.5528 36.7169 21.5528 30.7649C21.5528 24.8129 23.9652 19.4249 27.8655 15.5246Z" fill="url(#paint0_linear)"/>
<path d="M21.7695 9.42919L18.7215 6.38086C12.4808 12.6212 8.62109 21.2422 8.62109 30.7655C8.62109 40.2889 12.4811 48.9099 18.7215 55.1499L21.7695 52.1019C16.3092 46.6412 12.9318 39.0975 12.9318 30.7652C12.9318 22.4329 16.3092 14.8895 21.7695 9.42919Z" fill="url(#paint1_linear)"/>
<path d="M4.31066 30.7658C4.31066 20.0525 8.65299 10.3538 15.6736 3.33349L12.6256 0.285156H12.6253C4.82466 8.08616 0 18.8625 0 30.7658C0 42.6692 4.82466 53.4455 12.6256 61.2462L15.6736 58.1979C8.65265 51.1775 4.31066 41.4788 4.31066 30.7658Z" fill="url(#paint2_linear)"/>
<path d="M30.9136 18.5742C27.7933 21.6942 25.8633 26.0049 25.8633 30.7662C25.8633 35.5275 27.7933 39.8382 30.9136 42.9585L33.9617 39.9102C31.621 37.5699 30.174 34.3369 30.174 30.7659C30.174 27.1949 31.621 23.9619 33.9617 21.6215L30.9136 18.5742Z" fill="url(#paint3_linear)"/>
<path d="M73.2991 47.5244C78.1518 44.4737 81.3791 39.0754 81.3791 32.9204C81.3791 23.3974 73.6591 15.6777 64.1365 15.6777C54.6138 15.6777 46.8938 23.3971 46.8938 32.9204C46.8938 39.0754 50.1211 44.4734 54.9731 47.5244C45.2125 51.2237 38.2725 60.6584 38.2725 71.7161H42.5831C42.5831 59.8127 52.2321 50.1631 64.1361 50.1631C76.0395 50.1631 85.6891 59.8127 85.6891 71.7161H90.0005C90.0005 60.6587 83.0605 51.2237 73.2991 47.5244ZM64.1368 45.8527C56.9945 45.8527 51.2048 40.0627 51.2048 32.9207C51.2048 25.7787 56.9945 19.9887 64.1368 19.9887C71.2791 19.9887 77.0685 25.7787 77.0685 32.9207C77.0685 40.0627 71.2791 45.8527 64.1368 45.8527Z" fill="url(#paint4_linear)"/>
<defs>
<linearGradient id="paint0_linear" x1="-0.222295" y1="30.7652" x2="34.0063" y2="30.7652" gradientUnits="userSpaceOnUse">
<stop stop-color="#E5C851"/>
<stop offset="0.2598" stop-color="#FCF9EA"/>
<stop offset="0.513" stop-color="#D1B028"/>
<stop offset="0.7588" stop-color="white"/>
<stop offset="1" stop-color="#E6C954"/>
</linearGradient>
<linearGradient id="paint1_linear" x1="-0.222476" y1="30.7655" x2="34.0065" y2="30.7655" gradientUnits="userSpaceOnUse">
<stop stop-color="#E5C851"/>
<stop offset="0.2598" stop-color="#FCF9EA"/>
<stop offset="0.513" stop-color="#D1B028"/>
<stop offset="0.7588" stop-color="white"/>
<stop offset="1" stop-color="#E6C954"/>
</linearGradient>
<linearGradient id="paint2_linear" x1="-0.222166" y1="30.7658" x2="34.0065" y2="30.7658" gradientUnits="userSpaceOnUse">
<stop stop-color="#E5C851"/>
<stop offset="0.2598" stop-color="#FCF9EA"/>
<stop offset="0.513" stop-color="#D1B028"/>
<stop offset="0.7588" stop-color="white"/>
<stop offset="1" stop-color="#E6C954"/>
</linearGradient>
<linearGradient id="paint3_linear" x1="-0.222731" y1="30.7663" x2="34.0062" y2="30.7663" gradientUnits="userSpaceOnUse">
<stop stop-color="#E5C851"/>
<stop offset="0.2598" stop-color="#FCF9EA"/>
<stop offset="0.513" stop-color="#D1B028"/>
<stop offset="0.7588" stop-color="white"/>
<stop offset="1" stop-color="#E6C954"/>
</linearGradient>
<linearGradient id="paint4_linear" x1="38.2733" y1="43.697" x2="90.0005" y2="43.697" gradientUnits="userSpaceOnUse">
<stop stop-color="#E5C851"/>
<stop offset="0.2598" stop-color="#FCF9EA"/>
<stop offset="0.513" stop-color="#D1B028"/>
<stop offset="0.7588" stop-color="white"/>
<stop offset="1" stop-color="#E6C954"/>
</linearGradient>
</defs>
</svg>
