<svg viewBox="0 0 100 100" fill="none" xmlns="http://www.w3.org/2000/svg">
    <path d="M50 22.6771V17.8555L43.5713 24.2841L50 30.7128V25.8915C63.3139 25.8915 74.1069 36.6845 74.1069 49.9985H77.3213C77.3213 34.9091 65.0893 22.6771 50 22.6771Z"
          fill="url(#paint0_linear)"/>
    <path d="M50 74.107C36.686 74.107 25.893 63.314 25.893 50H22.6787C22.6787 65.0893 34.911 77.3213 50 77.3213V82.143L56.4287 75.7143L50 69.2857V74.107Z"
          fill="url(#paint1_linear)"/>
    <path d="M31.1183 28.7467C34.7363 26.4717 37.143 22.4467 37.143 17.857C37.143 10.7563 31.3867 5 24.2857 5C17.1847 5 11.4287 10.7563 11.4287 17.857C11.4287 22.4467 13.8353 26.4717 17.4533 28.7467C10.1747 31.5053 5 38.5407 5 46.7857H8.21433C8.21433 37.91 15.4097 30.7143 24.2857 30.7143C33.1617 30.7143 40.357 37.9097 40.357 46.7857H43.5713C43.5713 38.5407 38.3967 31.5053 31.1183 28.7467ZM24.2857 27.5C18.96 27.5 14.643 23.1827 14.643 17.857C14.643 12.5313 18.9603 8.21433 24.2857 8.21433C29.6113 8.21433 33.9287 12.5317 33.9287 17.857C33.9287 23.1827 29.6113 27.5 24.2857 27.5Z"
          fill="url(#paint2_linear)"/>
    <path d="M82.5467 76.9618C86.1647 74.6868 88.5711 70.6615 88.5711 66.0718C88.5711 58.9708 82.8151 53.2148 75.7141 53.2148C68.6131 53.2148 62.857 58.9712 62.857 66.0718C62.857 70.6615 65.2637 74.6868 68.8817 76.9618C61.603 79.7199 56.4287 86.7555 56.4287 95.0005H59.643C59.643 86.1245 66.8387 78.9292 75.7144 78.9292C84.5904 78.9292 91.7861 86.1245 91.7861 95.0005H94.9997C94.9997 86.7555 89.8251 79.7199 82.5467 76.9618ZM75.7141 75.7149C70.3884 75.7149 66.0711 71.3978 66.0711 66.0718C66.0711 60.7462 70.3884 56.4292 75.7141 56.4292C81.0397 56.4292 85.3571 60.7462 85.3571 66.0718C85.3567 71.3975 81.0394 75.7149 75.7141 75.7149Z"
          fill="url(#paint3_linear)"/>
    <defs>
        <linearGradient id="paint0_linear" x1="43.5714" y1="33.927" x2="77.3212" y2="33.927"
                        gradientUnits="userSpaceOnUse">
            <stop stop-color="#E5C851"/>
            <stop offset="0.2598" stop-color="#FCF9EA"/>
            <stop offset="0.513" stop-color="#D1B028"/>
            <stop offset="0.7588" stop-color="white"/>
            <stop offset="1" stop-color="#E6C954"/>
        </linearGradient>
        <linearGradient id="paint1_linear" x1="22.6786" y1="66.0716" x2="56.4287" y2="66.0716"
                        gradientUnits="userSpaceOnUse">
            <stop stop-color="#E5C851"/>
            <stop offset="0.2598" stop-color="#FCF9EA"/>
            <stop offset="0.513" stop-color="#D1B028"/>
            <stop offset="0.7588" stop-color="white"/>
            <stop offset="1" stop-color="#E6C954"/>
        </linearGradient>
        <linearGradient id="paint2_linear" x1="5" y1="25.8929" x2="43.5715" y2="25.8929" gradientUnits="userSpaceOnUse">
            <stop stop-color="#E5C851"/>
            <stop offset="0.2598" stop-color="#FCF9EA"/>
            <stop offset="0.513" stop-color="#D1B028"/>
            <stop offset="0.7588" stop-color="white"/>
            <stop offset="1" stop-color="#E6C954"/>
        </linearGradient>
        <linearGradient id="paint3_linear" x1="56.4284" y1="74.1076" x2="94.9997" y2="74.1076"
                        gradientUnits="userSpaceOnUse">
            <stop stop-color="#E5C851"/>
            <stop offset="0.2598" stop-color="#FCF9EA"/>
            <stop offset="0.513" stop-color="#D1B028"/>
            <stop offset="0.7588" stop-color="white"/>
            <stop offset="1" stop-color="#E6C954"/>
        </linearGradient>
    </defs>
</svg>
