<svg viewBox="0 0 90 90" preserveAspectRatio="none" fill="none" xmlns="http://www.w3.org/2000/svg">
    <path d="M45 17.6771V12.8555L38.5713 19.2841L45 25.7128V20.8915C58.3139 20.8915 69.1069 31.6845 69.1069 44.9985H72.3213C72.3213 29.9091 60.0893 17.6771 45 17.6771Z"
          fill="url(#paint0_linear)"/>
    <path d="M45 69.107C31.686 69.107 20.893 58.314 20.893 45H17.6787C17.6787 60.0893 29.911 72.3213 45 72.3213V77.143L51.4287 70.7143L45 64.2857V69.107Z"
          fill="url(#paint1_linear)"/>
    <path d="M26.1183 23.7467C29.7363 21.4717 32.143 17.4467 32.143 12.857C32.143 5.75634 26.3867 0 19.2857 0C12.1847 0 6.42867 5.75634 6.42867 12.857C6.42867 17.4467 8.83534 21.4717 12.4533 23.7467C5.17467 26.5053 0 33.5407 0 41.7857H3.21433C3.21433 32.91 10.4097 25.7143 19.2857 25.7143C28.1617 25.7143 35.357 32.9097 35.357 41.7857H38.5713C38.5713 33.5407 33.3967 26.5053 26.1183 23.7467ZM19.2857 22.5C13.96 22.5 9.643 18.1827 9.643 12.857C9.643 7.53134 13.9603 3.21433 19.2857 3.21433C24.6113 3.21433 28.9287 7.53167 28.9287 12.857C28.9287 18.1827 24.6113 22.5 19.2857 22.5Z"
          fill="url(#paint2_linear)"/>
    <path d="M77.5467 71.9618C81.1647 69.6868 83.5711 65.6615 83.5711 61.0718C83.5711 53.9708 77.8151 48.2148 70.7141 48.2148C63.6131 48.2148 57.857 53.9712 57.857 61.0718C57.857 65.6615 60.2637 69.6868 63.8817 71.9618C56.603 74.7199 51.4287 81.7555 51.4287 90.0005H54.643C54.643 81.1245 61.8387 73.9292 70.7144 73.9292C79.5904 73.9292 86.7861 81.1245 86.7861 90.0005H89.9997C89.9997 81.7555 84.8251 74.7199 77.5467 71.9618ZM70.7141 70.7149C65.3884 70.7149 61.0711 66.3978 61.0711 61.0718C61.0711 55.7462 65.3884 51.4292 70.7141 51.4292C76.0397 51.4292 80.3571 55.7462 80.3571 61.0718C80.3567 66.3975 76.0394 70.7149 70.7141 70.7149Z"
          fill="url(#paint3_linear)"/>
    <defs>
        <linearGradient id="paint0_linear" x1="38.5714" y1="28.927" x2="72.3212" y2="28.927"
                        gradientUnits="userSpaceOnUse">
            <stop stop-color="#E5C851"/>
            <stop offset="0.2598" stop-color="#FCF9EA"/>
            <stop offset="0.513" stop-color="#D1B028"/>
            <stop offset="0.7588" stop-color="white"/>
            <stop offset="1" stop-color="#E6C954"/>
        </linearGradient>
        <linearGradient id="paint1_linear" x1="17.6786" y1="61.0716" x2="51.4287" y2="61.0716"
                        gradientUnits="userSpaceOnUse">
            <stop stop-color="#E5C851"/>
            <stop offset="0.2598" stop-color="#FCF9EA"/>
            <stop offset="0.513" stop-color="#D1B028"/>
            <stop offset="0.7588" stop-color="white"/>
            <stop offset="1" stop-color="#E6C954"/>
        </linearGradient>
        <linearGradient id="paint2_linear" x1="0" y1="20.8929" x2="38.5715" y2="20.8929" gradientUnits="userSpaceOnUse">
            <stop stop-color="#E5C851"/>
            <stop offset="0.2598" stop-color="#FCF9EA"/>
            <stop offset="0.513" stop-color="#D1B028"/>
            <stop offset="0.7588" stop-color="white"/>
            <stop offset="1" stop-color="#E6C954"/>
        </linearGradient>
        <linearGradient id="paint3_linear" x1="51.4284" y1="69.1076" x2="89.9997" y2="69.1076"
                        gradientUnits="userSpaceOnUse">
            <stop stop-color="#E5C851"/>
            <stop offset="0.2598" stop-color="#FCF9EA"/>
            <stop offset="0.513" stop-color="#D1B028"/>
            <stop offset="0.7588" stop-color="white"/>
            <stop offset="1" stop-color="#E6C954"/>
        </linearGradient>
    </defs>
</svg>
