<svg viewBox="0 0 100 100" fill="none" xmlns="http://www.w3.org/2000/svg">
<path d="M53.361 32.0898H13.956C12.9667 32.0898 12.165 32.8915 12.165 33.8808C12.165 34.8702 12.9667 35.6722 13.956 35.6722H53.361C54.35 35.6722 55.152 34.8705 55.152 33.8808C55.152 32.8915 54.35 32.0898 53.361 32.0898Z" fill="url(#paint0_linear)"/>
<path d="M53.361 39.2539H13.956C12.9667 39.2539 12.165 40.0559 12.165 41.0452C12.165 42.0346 12.9667 42.8362 13.956 42.8362H53.361C54.35 42.8362 55.152 42.0346 55.152 41.0452C55.152 40.0559 54.35 39.2539 53.361 39.2539Z" fill="url(#paint1_linear)"/>
<path d="M53.361 46.418H13.956C12.9667 46.418 12.165 47.22 12.165 48.209C12.165 49.1983 12.9667 50.0003 13.956 50.0003H53.361C54.35 50.0003 55.152 49.1983 55.152 48.209C55.152 47.22 54.35 46.418 53.361 46.418Z" fill="url(#paint2_linear)"/>
<path d="M53.361 53.582H13.956C12.9667 53.582 12.165 54.3837 12.165 55.373C12.165 56.3624 12.9667 57.164 13.956 57.164H53.361C54.35 57.164 55.152 56.3624 55.152 55.373C55.152 54.3837 54.35 53.582 53.361 53.582Z" fill="url(#paint3_linear)"/>
<path d="M37.2407 60.7461H13.956C12.9667 60.7461 12.165 61.5478 12.165 62.5371C12.165 63.5264 12.9667 64.3284 13.956 64.3284H37.2407C38.23 64.3284 39.032 63.5264 39.032 62.5371C39.032 61.5478 38.2297 60.7461 37.2407 60.7461Z" fill="url(#paint4_linear)"/>
<path d="M62.3157 82.2403V74.4613L62.8867 73.8903L92.8927 43.884C92.8933 43.884 92.8933 43.884 92.8933 43.884L92.9017 43.8753C95.6993 41.0773 95.6993 36.5413 92.9017 33.7433C90.1033 30.9453 85.5677 30.9453 82.7697 33.7433L82.7613 33.7523L62.316 54.197V28.5067L44.405 10.5957H12.1647C8.20767 10.5954 5 13.803 5 17.7597V82.2399C5 86.1966 8.20767 89.4043 12.1647 89.4043H55.1517C59.108 89.4046 62.3157 86.1969 62.3157 82.2403ZM85.2937 36.285C86.6927 34.886 88.961 34.886 90.36 36.285C91.759 37.684 91.759 39.952 90.36 41.351L87.8353 43.875L82.7697 38.809L85.2937 36.285ZM80.228 41.351L85.2937 46.417L62.3157 69.3953L62.3073 69.4039L60.3537 71.3573L58.7247 72.9859L52.004 79.7069L46.938 74.6413L46.9467 74.6326L47.3073 74.2716L55.2963 66.2826L58.734 62.845L62.316 59.263L80.228 41.351ZM58.7337 82.2403C58.7337 84.2189 57.1293 85.8223 55.1517 85.8223H12.1647C10.186 85.8223 8.58233 84.2186 8.58233 82.2403V17.7597C8.58233 15.7814 10.186 14.1774 12.1647 14.1774H44.405V17.7597V24.9243V28.5067H47.9873H55.152H58.734V57.779L58.725 57.788L51.3153 65.1976L44.4133 72.0993L44.405 72.1079V82.2399H54.5367L54.898 81.8793L54.9063 81.8703L58.7247 78.0519L58.7337 78.0433V82.2403Z" fill="url(#paint5_linear)"/>
<defs>
<linearGradient id="paint0_linear" x1="12.1649" y1="33.8807" x2="55.1521" y2="33.8807" gradientUnits="userSpaceOnUse">
<stop stop-color="#E5C851"/>
<stop offset="0.2598" stop-color="#FCF9EA"/>
<stop offset="0.513" stop-color="#D1B028"/>
<stop offset="0.7588" stop-color="white"/>
<stop offset="1" stop-color="#E6C954"/>
</linearGradient>
<linearGradient id="paint1_linear" x1="12.1649" y1="41.0448" x2="55.1521" y2="41.0448" gradientUnits="userSpaceOnUse">
<stop stop-color="#E5C851"/>
<stop offset="0.2598" stop-color="#FCF9EA"/>
<stop offset="0.513" stop-color="#D1B028"/>
<stop offset="0.7588" stop-color="white"/>
<stop offset="1" stop-color="#E6C954"/>
</linearGradient>
<linearGradient id="paint2_linear" x1="12.1649" y1="48.2093" x2="55.1521" y2="48.2093" gradientUnits="userSpaceOnUse">
<stop stop-color="#E5C851"/>
<stop offset="0.2598" stop-color="#FCF9EA"/>
<stop offset="0.513" stop-color="#D1B028"/>
<stop offset="0.7588" stop-color="white"/>
<stop offset="1" stop-color="#E6C954"/>
</linearGradient>
<linearGradient id="paint3_linear" x1="12.1649" y1="55.3731" x2="55.1521" y2="55.3731" gradientUnits="userSpaceOnUse">
<stop stop-color="#E5C851"/>
<stop offset="0.2598" stop-color="#FCF9EA"/>
<stop offset="0.513" stop-color="#D1B028"/>
<stop offset="0.7588" stop-color="white"/>
<stop offset="1" stop-color="#E6C954"/>
</linearGradient>
<linearGradient id="paint4_linear" x1="12.1649" y1="62.5372" x2="39.0318" y2="62.5372" gradientUnits="userSpaceOnUse">
<stop stop-color="#E5C851"/>
<stop offset="0.2598" stop-color="#FCF9EA"/>
<stop offset="0.513" stop-color="#D1B028"/>
<stop offset="0.7588" stop-color="white"/>
<stop offset="1" stop-color="#E6C954"/>
</linearGradient>
<linearGradient id="paint5_linear" x1="5" y1="50" x2="94.3023" y2="50" gradientUnits="userSpaceOnUse">
<stop stop-color="#E5C851"/>
<stop offset="0.2598" stop-color="#FCF9EA"/>
<stop offset="0.513" stop-color="#D1B028"/>
<stop offset="0.7588" stop-color="white"/>
<stop offset="1" stop-color="#E6C954"/>
</linearGradient>
</defs>
</svg>
