<svg viewBox="0 0 100 100" fill="none" xmlns="http://www.w3.org/2000/svg">
<path d="M91.087 5V8.913H87.174V5H83.261V10.8697H16.739V5H12.826V8.913H8.913V5H5V14.7827V16.7393V24.5657V26.5223V34.3483V36.305V44.131V46.0877V53.914V55.8703V63.6967V65.653V73.4793V75.436V83.262V85.2187V95H8.913V91.087H12.826V95H16.739V89.1307H83.2607V95H87.1737V91.087H91.0867V95H95V85.2173V83.2607V75.4347V73.478V65.6517V63.6953V55.869V53.9127V46.0863V44.1297V36.3037V34.347V26.5217V24.565V16.739V14.7823V5H91.087ZM12.826 85.2173C12.826 86.2977 11.9503 87.1737 10.8697 87.1737C9.789 87.1737 8.913 86.2977 8.913 85.2173V83.2607C8.913 82.1803 9.78867 81.3043 10.8697 81.3043C11.9503 81.3043 12.826 82.1803 12.826 83.2607V85.2173ZM12.826 75.435C12.826 76.5153 11.9503 77.3913 10.8697 77.3913C9.789 77.3913 8.913 76.5153 8.913 75.435V73.4783C8.913 72.398 9.78867 71.522 10.8697 71.522C11.9503 71.522 12.826 72.398 12.826 73.4783V75.435ZM12.826 65.652C12.826 66.7327 11.9503 67.6087 10.8697 67.6087C9.789 67.6087 8.913 66.7327 8.913 65.652V63.6957C8.913 62.615 9.78867 61.7393 10.8697 61.7393C11.9503 61.7393 12.826 62.615 12.826 63.6957V65.652ZM12.826 55.8693C12.826 56.95 11.9503 57.826 10.8697 57.826C9.789 57.826 8.913 56.95 8.913 55.8693V53.913C8.913 52.8323 9.78867 51.9563 10.8697 51.9563C11.9503 51.9563 12.826 52.8323 12.826 53.913V55.8693ZM12.826 46.087C12.826 47.1677 11.9503 48.0437 10.8697 48.0437C9.789 48.0437 8.913 47.1677 8.913 46.087V44.1303C8.913 43.0497 9.78867 42.174 10.8697 42.174C11.9503 42.174 12.826 43.0497 12.826 44.1303V46.087ZM12.826 36.3043C12.826 37.385 11.9503 38.261 10.8697 38.261C9.789 38.261 8.913 37.385 8.913 36.3043V34.3477C8.913 33.267 9.78867 32.391 10.8697 32.391C11.9503 32.391 12.826 33.267 12.826 34.3477V36.3043ZM12.826 26.5217C12.826 27.6023 11.9503 28.478 10.8697 28.478C9.789 28.478 8.913 27.6023 8.913 26.5217V24.565C8.913 23.4843 9.78867 22.6083 10.8697 22.6083C11.9503 22.6083 12.826 23.4843 12.826 24.565V26.5217ZM12.826 16.739C12.826 17.8197 11.9503 18.6957 10.8697 18.6957C9.789 18.6957 8.913 17.8197 8.913 16.739V14.7823C8.913 13.7017 9.78867 12.8257 10.8697 12.8257C11.9503 12.8257 12.826 13.7017 12.826 14.7823V16.739ZM83.2607 24.5653V26.522V34.348V36.3047V44.1307V46.0873V53.9137V55.87V63.6963V65.6527V73.479V75.4357V77.392C83.2607 79.553 81.509 81.305 79.348 81.305H20.6523C18.4913 81.305 16.7393 79.553 16.7393 77.392V75.4357V73.479V65.6527V63.6963V55.87V53.9137V46.0873V44.1307V36.3047V34.348V26.5217V24.565V22.6083C16.7393 20.4473 18.4913 18.6953 20.6523 18.6953H79.348C81.509 18.6953 83.2607 20.4473 83.2607 22.6083V24.5653ZM91.087 85.2173C91.087 86.2977 90.211 87.1737 89.1307 87.1737C88.05 87.1737 87.174 86.2977 87.174 85.2173V83.2607C87.174 82.1803 88.05 81.3043 89.1307 81.3043C90.211 81.3043 91.087 82.1803 91.087 83.2607V85.2173ZM91.087 75.435C91.087 76.5153 90.211 77.3913 89.1307 77.3913C88.05 77.3913 87.174 76.5153 87.174 75.435V73.4783C87.174 72.398 88.05 71.522 89.1307 71.522C90.211 71.522 91.087 72.398 91.087 73.4783V75.435ZM91.087 65.652C91.087 66.7327 90.211 67.6087 89.1307 67.6087C88.05 67.6087 87.174 66.7327 87.174 65.652V63.6957C87.174 62.615 88.05 61.7393 89.1307 61.7393C90.211 61.7393 91.087 62.615 91.087 63.6957V65.652ZM91.087 55.8693C91.087 56.95 90.211 57.826 89.1307 57.826C88.05 57.826 87.174 56.95 87.174 55.8693V53.913C87.174 52.8323 88.05 51.9563 89.1307 51.9563C90.211 51.9563 91.087 52.8323 91.087 53.913V55.8693ZM91.087 46.087C91.087 47.1677 90.211 48.0437 89.1307 48.0437C88.05 48.0437 87.174 47.1677 87.174 46.087V44.1303C87.174 43.0497 88.05 42.174 89.1307 42.174C90.211 42.174 91.087 43.0497 91.087 44.1303V46.087ZM91.087 36.3043C91.087 37.385 90.211 38.261 89.1307 38.261C88.05 38.261 87.174 37.385 87.174 36.3043V34.3477C87.174 33.267 88.05 32.391 89.1307 32.391C90.211 32.391 91.087 33.267 91.087 34.3477V36.3043ZM91.087 26.5217C91.087 27.6023 90.211 28.478 89.1307 28.478C88.05 28.478 87.174 27.6023 87.174 26.5217V24.565C87.174 23.4843 88.05 22.6083 89.1307 22.6083C90.211 22.6083 91.087 23.4843 91.087 24.565V26.5217ZM91.087 16.739C91.087 17.8197 90.211 18.6957 89.1307 18.6957C88.05 18.6957 87.174 17.8197 87.174 16.739V14.7823C87.174 13.7017 88.05 12.8257 89.1307 12.8257C90.211 12.8257 91.087 13.7017 91.087 14.7823V16.739Z" fill="url(#paint0_linear)"/>
<path d="M49.9998 26.5215C37.0331 26.5215 26.5215 37.0328 26.5215 49.9998C26.5215 62.9668 37.0331 73.4781 49.9998 73.4781C62.9661 73.4781 73.4781 62.9668 73.4781 49.9998C73.4781 37.0328 62.9661 26.5215 49.9998 26.5215ZM49.9998 69.5648C39.1941 69.5648 30.4345 60.8055 30.4345 49.9998C30.4345 39.1942 39.1941 30.4345 49.9998 30.4345C60.8051 30.4345 69.5648 39.1942 69.5648 49.9998C69.5648 60.8055 60.8051 69.5648 49.9998 69.5648Z" fill="url(#paint1_linear)"/>
<path d="M46.0869 61.0673L57.1546 49.9996L46.0869 38.9316V61.0673Z" fill="url(#paint2_linear)"/>
<defs>
<linearGradient id="paint0_linear" x1="4.61117" y1="50" x2="95.0887" y2="50" gradientUnits="userSpaceOnUse">
<stop stop-color="#E5C851"/>
<stop offset="0.2598" stop-color="#FCF9EA"/>
<stop offset="0.513" stop-color="#D1B028"/>
<stop offset="0.7588" stop-color="white"/>
<stop offset="1" stop-color="#E6C954"/>
</linearGradient>
<linearGradient id="paint1_linear" x1="4.61099" y1="49.9998" x2="95.0885" y2="49.9998" gradientUnits="userSpaceOnUse">
<stop stop-color="#E5C851"/>
<stop offset="0.2598" stop-color="#FCF9EA"/>
<stop offset="0.513" stop-color="#D1B028"/>
<stop offset="0.7588" stop-color="white"/>
<stop offset="1" stop-color="#E6C954"/>
</linearGradient>
<linearGradient id="paint2_linear" x1="4.61109" y1="49.9996" x2="95.0886" y2="49.9996" gradientUnits="userSpaceOnUse">
<stop stop-color="#E5C851"/>
<stop offset="0.2598" stop-color="#FCF9EA"/>
<stop offset="0.513" stop-color="#D1B028"/>
<stop offset="0.7588" stop-color="white"/>
<stop offset="1" stop-color="#E6C954"/>
</linearGradient>
</defs>
</svg>
