<svg width="255" height="140" viewBox="0 0 255 140" fill="none" xmlns="http://www.w3.org/2000/svg">
    <path d="M0 78.512V109.587H9.53319V94.5474L24.9579 94.0523V86.5049L9.53319 86.0099V80.2778C9.53319 79.4692 9.79174 78.8091 10.3033 78.292C10.8204 77.7804 11.5521 77.5218 12.5092 77.5218H27.6589V69.5344C23.8027 69.0944 18.3293 68.8193 11.2385 68.7093H9.80824C7.12926 68.7093 4.82436 69.4684 2.89352 70.9922C0.968177 72.516 0 75.0244 0 78.512ZM36.1414 106.941C39.0074 108.888 43.0121 109.862 48.1555 109.862C53.2935 109.862 57.2872 108.888 60.1367 106.941C62.9807 104.994 64.4054 101.435 64.4054 96.2527V68.7093H54.8722V96.1977C54.8722 99.6138 52.6333 101.325 48.1555 101.325C43.6337 101.325 41.3783 99.6138 41.3783 96.1977V68.7093H31.8451V96.2527C31.8451 101.435 33.2754 104.994 36.1414 106.941ZM72.8329 107.161C74.4887 108.778 77.0577 109.587 80.5453 109.587H95.4804V101.05H83.0812C80.9524 101.05 79.8852 99.9658 79.8852 97.7984V68.7093H70.3575V99.3937C70.3575 102.958 71.1826 105.549 72.8329 107.161ZM102.362 107.161C104.018 108.778 106.587 109.587 110.08 109.587H125.01V101.05H112.61C110.482 101.05 109.414 99.9658 109.414 97.7984V68.7093H99.8867V99.3937C99.8867 102.958 100.712 105.549 102.362 107.161ZM134.757 108.267C136.892 109.367 139.642 109.917 143.025 109.917C148.68 109.917 153.07 109.35 156.189 108.212V100.829C153.802 101.193 150.133 101.38 145.171 101.38C143.08 101.38 141.502 101.039 140.434 100.356C139.367 99.6798 138.636 98.4861 138.229 96.7753C137.827 95.07 137.623 92.5065 137.623 89.0904C137.623 85.6028 137.865 82.9953 138.339 81.268C138.817 79.5407 139.571 78.3745 140.599 77.7694C141.628 77.1643 143.135 76.8617 145.116 76.8617C149.12 76.8617 152.812 77.1753 156.189 77.7969V70.4146C154.72 69.826 152.867 69.3309 150.628 68.9293C148.383 68.5223 145.869 68.3242 143.08 68.3242C139.807 68.3242 137.09 68.9018 134.922 70.057C132.761 71.2122 131.077 73.2971 129.884 76.3116C128.69 79.3207 128.096 83.5619 128.096 89.0354C128.096 94.6959 128.673 99.0362 129.829 102.067C130.984 105.098 132.629 107.161 134.757 108.267ZM171.284 68.7093L158.835 109.587H168.643L170.679 102.15H183.683L185.773 109.587H195.637L183.188 68.7093H171.284ZM181.477 93.6122H172.885L177.181 76.8617L181.477 93.6122ZM201.974 107.161C203.624 108.778 206.199 109.587 209.686 109.587H224.616V101.05H212.222C210.088 101.05 209.026 99.9658 209.026 97.7984V68.7093H199.493V99.3937C199.493 102.958 200.318 105.549 201.974 107.161ZM231.503 107.161C233.159 108.778 235.728 109.587 239.215 109.587H254.145V101.05H241.751C239.622 101.05 238.555 99.9658 238.555 97.7984V68.7093H229.022V99.3937C229.022 102.958 229.853 105.549 231.503 107.161Z"
          fill="#DADADA"/>
    <path d="M22.855 127.512C22.5085 127.512 22.2554 127.682 22.0794 128.023L18.7953 134.509L16.5564 128.062C16.4904 127.88 16.3969 127.743 16.2594 127.649C16.1273 127.556 15.9733 127.512 15.8028 127.512C15.5552 127.512 15.3352 127.594 15.1317 127.759C14.9281 127.924 14.8291 128.122 14.8291 128.353C14.8291 128.441 14.8456 128.535 14.8841 128.628L17.5631 135.956C17.6511 136.203 17.7886 136.39 17.9757 136.517C18.1682 136.649 18.3827 136.709 18.6303 136.709C18.8503 136.709 19.0649 136.654 19.2739 136.539C19.4774 136.423 19.637 136.247 19.747 136.016L23.6032 128.667C23.6802 128.535 23.7187 128.403 23.7187 128.282C23.7187 128.062 23.6307 127.88 23.4601 127.732C23.2896 127.583 23.0861 127.512 22.855 127.512ZM24.9564 136.456C25.1214 136.599 25.336 136.676 25.6055 136.676C25.8751 136.676 26.1061 136.605 26.2876 136.462C26.4692 136.324 26.5737 136.099 26.6012 135.791L27.2063 128.298C27.2173 128.018 27.1458 127.803 26.9863 127.66C26.8267 127.512 26.6122 127.435 26.3426 127.435C26.0841 127.435 25.8586 127.512 25.6605 127.66C25.468 127.803 25.3635 128.018 25.3525 128.298L24.7419 135.791C24.7199 136.088 24.7914 136.308 24.9564 136.456ZM25.7375 125.344C25.9466 125.542 26.2271 125.636 26.5792 125.636C26.9367 125.636 27.2173 125.542 27.4263 125.344C27.6354 125.146 27.7399 124.893 27.7399 124.574C27.7399 124.255 27.6299 124.002 27.4153 123.809C27.2008 123.622 26.9257 123.523 26.5792 123.523C26.2271 123.523 25.9466 123.622 25.7375 123.809C25.5285 124.002 25.424 124.255 25.424 124.574C25.424 124.893 25.5285 125.146 25.7375 125.344ZM38.1312 123.765C37.9717 123.606 37.7517 123.523 37.4711 123.523C37.2016 123.523 36.976 123.6 36.789 123.743C36.6075 123.892 36.5084 124.096 36.4974 124.354L36.1289 128.997C35.8483 128.485 35.4578 128.089 34.9572 127.814C34.4511 127.539 33.8735 127.402 33.2079 127.402C32.3772 127.402 31.6401 127.611 30.9965 128.023C30.3529 128.441 29.8578 129.03 29.5002 129.789C29.1481 130.548 28.9666 131.423 28.9666 132.413C28.9666 133.282 29.1261 134.041 29.4452 134.69C29.7642 135.34 30.2153 135.84 30.7929 136.187C31.376 136.539 32.0417 136.709 32.7898 136.709C33.4004 136.709 33.9615 136.577 34.4786 136.319C34.9902 136.055 35.3917 135.692 35.6723 135.224L35.6338 135.791C35.6118 136.077 35.6778 136.291 35.8373 136.445C35.9969 136.599 36.2114 136.676 36.4809 136.676C36.7505 136.676 36.976 136.599 37.1576 136.445C37.3446 136.291 37.4381 136.077 37.4546 135.791L38.3513 124.387C38.3623 124.134 38.2908 123.925 38.1312 123.765ZM35.2487 134.316C34.7811 134.932 34.143 135.241 33.3234 135.241C32.5367 135.241 31.9261 134.987 31.4916 134.481C31.057 133.97 30.8424 133.255 30.8424 132.319C30.8424 131.258 31.0735 130.416 31.5411 129.806C32.0031 129.195 32.6468 128.887 33.4664 128.887C34.264 128.887 34.8747 129.134 35.3037 129.63C35.7328 130.13 35.9473 130.845 35.9473 131.791C35.9473 132.853 35.7163 133.695 35.2487 134.316ZM47.8955 132.22C48.022 132.094 48.088 131.907 48.088 131.659C48.088 130.279 47.7579 129.222 47.1033 128.491C46.4487 127.765 45.508 127.402 44.2868 127.402C43.4012 127.402 42.6255 127.611 41.9544 128.023C41.2778 128.441 40.7552 129.024 40.3811 129.778C40.0071 130.532 39.82 131.39 39.82 132.358C39.82 133.227 40.0016 133.992 40.3646 134.652C40.7222 135.318 41.2338 135.824 41.8994 136.181C42.5595 136.533 43.3297 136.709 44.2098 136.709C44.7984 136.709 45.3815 136.627 45.9646 136.456C46.5477 136.28 47.0043 136.06 47.3344 135.791C47.5764 135.598 47.6974 135.356 47.6974 135.075C47.6974 134.894 47.6424 134.734 47.5324 134.597C47.4224 134.465 47.2849 134.399 47.1143 134.399C46.9768 134.399 46.8448 134.443 46.7073 134.525C45.9756 135.015 45.178 135.263 44.3198 135.263C43.4617 135.263 42.8071 135.015 42.356 134.514C41.9049 134.019 41.6684 133.321 41.6574 132.413H47.3674C47.5874 132.413 47.7634 132.353 47.8955 132.22ZM42.576 129.42C43.0161 128.98 43.6102 128.76 44.3583 128.76C45.046 128.76 45.5741 128.98 45.9481 129.42C46.3222 129.861 46.4927 130.504 46.4707 131.351H41.7289C41.8554 130.504 42.1359 129.861 42.576 129.42ZM51.5756 136.181C52.2247 136.533 52.9839 136.709 53.853 136.709C54.7607 136.709 55.5528 136.511 56.2294 136.104C56.9116 135.703 57.4342 135.13 57.8082 134.388C58.1823 133.645 58.3693 132.776 58.3693 131.769C58.3693 130.889 58.1933 130.119 57.8357 129.464C57.4837 128.81 56.9776 128.304 56.334 127.941C55.6848 127.583 54.9147 127.402 54.0345 127.402C53.1434 127.402 52.3568 127.605 51.6746 128.007C50.998 128.408 50.4699 128.986 50.0959 129.734C49.7218 130.482 49.5348 131.357 49.5348 132.358C49.5348 133.227 49.7163 133.992 50.0684 134.652C50.4259 135.318 50.9265 135.824 51.5756 136.181ZM55.8169 134.289C55.3658 134.921 54.7167 135.241 53.8695 135.241C53.0774 135.241 52.4668 135.004 52.0432 134.525C51.6196 134.047 51.4106 133.343 51.4106 132.413C51.4106 131.335 51.6361 130.482 52.0872 129.844C52.5438 129.206 53.1984 128.887 54.0566 128.887C54.8377 128.887 55.4428 129.129 55.8609 129.613C56.2845 130.097 56.499 130.796 56.499 131.714C56.499 132.793 56.2679 133.651 55.8169 134.289ZM66.7803 136.181C67.4294 136.533 68.1886 136.709 69.0577 136.709C69.6188 136.709 70.1634 136.627 70.6805 136.456C71.2031 136.28 71.6377 136.044 71.9787 135.736C72.1988 135.593 72.3088 135.373 72.3088 135.075C72.3088 134.894 72.2538 134.734 72.1438 134.597C72.0337 134.465 71.8907 134.399 71.7202 134.399C71.6102 134.399 71.4836 134.432 71.3351 134.509C71.0051 134.751 70.6695 134.932 70.3339 135.048C69.9984 135.164 69.6298 135.224 69.2227 135.224C68.4031 135.224 67.7705 134.971 67.3304 134.47C66.8903 133.97 66.6703 133.271 66.6703 132.38C66.6703 131.274 66.9178 130.416 67.4074 129.806C67.897 129.195 68.5901 128.887 69.4978 128.887C70.2569 128.887 70.9996 129.134 71.7202 129.624C71.8412 129.696 71.9567 129.734 72.0723 129.734C72.2538 129.734 72.4078 129.652 72.5398 129.492C72.6664 129.332 72.7324 129.151 72.7324 128.942C72.7324 128.65 72.6169 128.425 72.3803 128.265C72.0503 128.007 71.6267 127.798 71.1041 127.638C70.587 127.479 70.0314 127.402 69.4428 127.402C68.4911 127.402 67.655 127.605 66.9453 128.018C66.2357 128.425 65.6911 129.002 65.3116 129.751C64.932 130.499 64.7395 131.373 64.7395 132.38C64.7395 133.249 64.921 134.008 65.273 134.663C65.6306 135.318 66.1312 135.824 66.7803 136.181ZM81.4789 128.188C80.9618 127.666 80.1972 127.402 79.196 127.402C78.5579 127.402 77.9803 127.528 77.4687 127.776C76.9571 128.029 76.5445 128.386 76.2365 128.854L76.6051 124.354C76.6161 124.096 76.5445 123.892 76.385 123.743C76.2255 123.6 76.011 123.523 75.7414 123.523C75.4719 123.523 75.2408 123.606 75.0538 123.765C74.8667 123.925 74.7622 124.134 74.7512 124.387L73.8326 135.791C73.8106 136.077 73.8766 136.291 74.0361 136.445C74.1956 136.599 74.4157 136.676 74.6962 136.676C74.9768 136.676 75.2078 136.599 75.3948 136.445C75.5764 136.291 75.6754 136.077 75.6864 135.791L76.0385 131.478C76.099 130.669 76.352 130.037 76.7976 129.586C77.2432 129.134 77.8483 128.909 78.6074 128.909C79.8066 128.909 80.4062 129.531 80.4062 130.779C80.4062 130.95 80.4007 131.082 80.3897 131.164L80.0212 135.791C79.9992 136.077 80.0652 136.291 80.2247 136.445C80.3842 136.599 80.6043 136.676 80.8848 136.676C81.1654 136.676 81.3964 136.599 81.5724 136.445C81.7485 136.291 81.853 136.077 81.875 135.791L82.2436 131.071C82.2546 130.95 82.2601 130.768 82.2601 130.521C82.2601 129.492 82.0015 128.716 81.4789 128.188ZM92.0848 130.559C92.0848 128.452 90.9516 127.402 88.6907 127.402C88.0636 127.402 87.4475 127.484 86.8424 127.66C86.2373 127.831 85.7147 128.062 85.2746 128.353C84.9665 128.551 84.8125 128.799 84.8125 129.09C84.8125 129.272 84.873 129.431 84.9995 129.569C85.1206 129.701 85.2746 129.767 85.4561 129.767C85.5937 129.767 85.7147 129.74 85.8247 129.679C86.8039 129.14 87.695 128.87 88.5037 128.87C89.1693 128.87 89.6424 129.03 89.9394 129.354C90.231 129.679 90.352 130.191 90.308 130.889L90.2695 131.351H89.6094C88.3001 131.351 87.2549 131.439 86.4738 131.626C85.6982 131.808 85.1316 132.099 84.7795 132.496C84.4219 132.897 84.2459 133.436 84.2459 134.124C84.2459 134.883 84.5375 135.505 85.1151 135.989C85.6982 136.467 86.4353 136.709 87.332 136.709C87.9316 136.709 88.4542 136.577 88.9107 136.319C89.3618 136.055 89.7194 135.67 89.9724 135.169L89.9394 135.791C89.9119 136.049 89.9834 136.264 90.1375 136.429C90.297 136.594 90.5115 136.676 90.7811 136.676C91.0506 136.676 91.2707 136.599 91.4357 136.456C91.6007 136.308 91.6887 136.099 91.6997 135.829L92.0683 131.093C92.0793 130.972 92.0848 130.79 92.0848 130.559ZM89.3893 134.652C88.9437 135.108 88.4102 135.334 87.772 135.334C87.255 135.334 86.8479 135.208 86.5508 134.96C86.2483 134.707 86.0997 134.366 86.0997 133.937C86.0997 133.546 86.2098 133.238 86.4298 133.018C86.6498 132.798 87.0184 132.639 87.53 132.545C88.0471 132.446 88.7567 132.397 89.6644 132.397H90.176L90.1375 132.908C90.077 133.618 89.8294 134.201 89.3893 134.652ZM96.8596 133.26L97.1897 129.052H99.027C99.5936 129.052 99.8742 128.804 99.8742 128.298C99.8742 128.095 99.8082 127.93 99.6706 127.803C99.5386 127.682 99.3516 127.622 99.1206 127.622H97.2997L97.4483 125.729C97.4758 125.46 97.4042 125.245 97.2447 125.086C97.0907 124.926 96.8652 124.849 96.5846 124.849C96.3151 124.849 96.0895 124.926 95.908 125.086C95.7209 125.245 95.6164 125.454 95.5944 125.713L95.4459 127.622H94.3457C94.0651 127.622 93.8506 127.688 93.7021 127.814C93.5536 127.941 93.4821 128.122 93.4821 128.353C93.4821 128.573 93.5481 128.749 93.6856 128.87C93.8176 128.991 94.0101 129.052 94.2522 129.052H95.3359L95.0058 133.315C94.9948 133.425 94.9893 133.579 94.9893 133.772C94.9893 134.701 95.2479 135.428 95.7595 135.939C96.2766 136.456 96.9972 136.709 97.9268 136.709C98.5265 136.709 98.9445 136.649 99.1866 136.528C99.4231 136.407 99.5441 136.192 99.5441 135.884C99.5441 135.675 99.5001 135.516 99.4121 135.4C99.3296 135.285 99.2141 135.224 99.0655 135.224C98.9775 135.224 98.862 135.235 98.719 135.252C98.5705 135.268 98.4219 135.279 98.2734 135.279C97.8223 135.279 97.4703 135.136 97.2172 134.85C96.9697 134.558 96.8431 134.14 96.8431 133.59C96.8431 133.442 96.8486 133.332 96.8596 133.26ZM109.231 125.636C109.539 125.295 110.023 125.097 110.673 125.047L111.168 125.014C111.426 124.987 111.619 124.915 111.756 124.794C111.888 124.668 111.954 124.492 111.954 124.261C111.954 123.793 111.635 123.578 110.986 123.617L110.596 123.633C108.258 123.782 106.992 125.031 106.794 127.38L106.778 127.622H105.678C105.397 127.622 105.183 127.688 105.034 127.814C104.886 127.941 104.814 128.128 104.814 128.375C104.814 128.584 104.88 128.749 105.018 128.87C105.15 128.991 105.342 129.052 105.584 129.052H106.668L106.134 135.791C106.123 136.088 106.2 136.308 106.376 136.456C106.547 136.599 106.761 136.676 107.014 136.676C107.273 136.676 107.499 136.599 107.686 136.456C107.878 136.308 107.977 136.088 107.988 135.791L108.522 129.052H110.359C110.92 129.052 111.206 128.804 111.206 128.298C111.206 128.095 111.14 127.93 111.014 127.803C110.882 127.682 110.695 127.622 110.453 127.622H108.632L108.67 127.16C108.731 126.488 108.918 125.982 109.231 125.636ZM113.572 136.181C114.221 136.533 114.98 136.709 115.849 136.709C116.757 136.709 117.549 136.511 118.231 136.104C118.908 135.703 119.436 135.13 119.81 134.388C120.184 133.645 120.365 132.776 120.365 131.769C120.365 130.889 120.189 130.119 119.837 129.464C119.48 128.81 118.979 128.304 118.33 127.941C117.681 127.583 116.916 127.402 116.036 127.402C115.139 127.402 114.353 127.605 113.676 128.007C112.994 128.408 112.466 128.986 112.097 129.734C111.723 130.482 111.536 131.357 111.536 132.358C111.536 133.227 111.712 133.992 112.07 134.652C112.422 135.318 112.923 135.824 113.572 136.181ZM117.813 134.289C117.362 134.921 116.713 135.241 115.871 135.241C115.073 135.241 114.463 135.004 114.039 134.525C113.621 134.047 113.407 133.343 113.407 132.413C113.407 131.335 113.632 130.482 114.089 129.844C114.54 129.206 115.194 128.887 116.053 128.887C116.834 128.887 117.439 129.129 117.862 129.613C118.286 130.097 118.495 130.796 118.495 131.714C118.495 132.793 118.269 133.651 117.813 134.289ZM128.111 127.583C127.968 127.462 127.781 127.413 127.55 127.435L127.346 127.457C126.026 127.556 125.058 128.073 124.447 129.019L124.502 128.265C124.513 127.996 124.447 127.787 124.299 127.649C124.15 127.506 123.957 127.435 123.71 127.435C123.451 127.435 123.226 127.512 123.033 127.66C122.835 127.803 122.731 128.012 122.72 128.282L122.115 135.791C122.087 136.088 122.159 136.308 122.324 136.456C122.489 136.599 122.709 136.676 122.978 136.676C123.242 136.676 123.473 136.605 123.655 136.462C123.836 136.324 123.941 136.099 123.968 135.791L124.315 131.604C124.376 130.823 124.612 130.229 125.025 129.822C125.432 129.42 126.059 129.178 126.906 129.09L127.401 129.035C128.012 128.986 128.32 128.678 128.32 128.117C128.32 127.886 128.248 127.704 128.111 127.583ZM141.341 127.512C140.999 127.512 140.741 127.682 140.57 128.023L137.281 134.509L135.042 128.062C134.981 127.88 134.882 127.743 134.745 127.649C134.613 127.556 134.459 127.512 134.288 127.512C134.041 127.512 133.821 127.594 133.617 127.759C133.414 127.924 133.315 128.122 133.315 128.353C133.315 128.441 133.331 128.535 133.37 128.628L136.197 136.379L134.932 138.86C134.855 139.009 134.822 139.146 134.822 139.284C134.822 139.493 134.899 139.663 135.058 139.795C135.218 139.933 135.405 139.999 135.609 139.999C135.768 139.999 135.922 139.955 136.06 139.861C136.203 139.768 136.318 139.636 136.417 139.465L142.094 128.667C142.166 128.535 142.204 128.403 142.204 128.282C142.204 128.062 142.116 127.88 141.946 127.732C141.775 127.583 141.572 127.512 141.341 127.512ZM144.922 136.181C145.571 136.533 146.33 136.709 147.199 136.709C148.107 136.709 148.899 136.511 149.576 136.104C150.258 135.703 150.78 135.13 151.154 134.388C151.528 133.645 151.715 132.776 151.715 131.769C151.715 130.889 151.539 130.119 151.182 129.464C150.83 128.81 150.329 128.304 149.68 127.941C149.031 127.583 148.261 127.402 147.381 127.402C146.489 127.402 145.703 127.605 145.021 128.007C144.344 128.408 143.816 128.986 143.442 129.734C143.068 130.482 142.881 131.357 142.881 132.358C142.881 133.227 143.062 133.992 143.414 134.652C143.772 135.318 144.273 135.824 144.922 136.181ZM149.163 134.289C148.712 134.921 148.063 135.241 147.216 135.241C146.423 135.241 145.813 135.004 145.389 134.525C144.966 134.047 144.757 133.343 144.757 132.413C144.757 131.335 144.982 130.482 145.433 129.844C145.89 129.206 146.544 128.887 147.403 128.887C148.184 128.887 148.789 129.129 149.207 129.613C149.631 130.097 149.845 130.796 149.845 131.714C149.845 132.793 149.614 133.651 149.163 134.289ZM161.716 127.666C161.562 127.512 161.348 127.435 161.062 127.435C160.781 127.435 160.55 127.517 160.363 127.677C160.181 127.836 160.082 128.056 160.071 128.337L159.703 132.655C159.642 133.447 159.4 134.074 158.971 134.525C158.542 134.976 157.964 135.208 157.244 135.208C156.056 135.208 155.462 134.569 155.462 133.293L155.478 132.963L155.869 128.337C155.891 128.056 155.825 127.836 155.665 127.677C155.506 127.517 155.286 127.435 155.005 127.435C154.735 127.435 154.51 127.517 154.323 127.677C154.141 127.836 154.037 128.056 154.009 128.337L153.624 133.073C153.613 133.183 153.608 133.348 153.608 133.574C153.608 134.597 153.866 135.378 154.378 135.912C154.895 136.445 155.649 136.709 156.639 136.709C157.26 136.709 157.827 136.583 158.339 136.324C158.845 136.071 159.252 135.703 159.56 135.224L159.505 135.868C159.488 136.126 159.56 136.324 159.714 136.462C159.868 136.605 160.071 136.676 160.33 136.676C160.599 136.676 160.831 136.599 161.018 136.445C161.21 136.291 161.309 136.088 161.32 135.829L161.925 128.337C161.936 128.045 161.87 127.82 161.716 127.666ZM169.907 127.583C169.764 127.462 169.577 127.413 169.346 127.435L169.142 127.457C167.822 127.556 166.854 128.073 166.243 129.019L166.298 128.265C166.309 127.996 166.243 127.787 166.095 127.649C165.946 127.506 165.754 127.435 165.506 127.435C165.253 127.435 165.022 127.512 164.83 127.66C164.632 127.803 164.527 128.012 164.516 128.282L163.911 135.791C163.884 136.088 163.955 136.308 164.12 136.456C164.285 136.599 164.505 136.676 164.775 136.676C165.044 136.676 165.27 136.605 165.451 136.462C165.638 136.324 165.743 136.099 165.765 135.791L166.111 131.604C166.177 130.823 166.408 130.229 166.821 129.822C167.228 129.42 167.861 129.178 168.702 129.09L169.197 129.035C169.814 128.986 170.116 128.678 170.116 128.117C170.116 127.886 170.045 127.704 169.907 127.583ZM188.39 127.633C188.242 127.721 188.132 127.853 188.06 128.023L185.249 134.36L183.506 128.172C183.445 127.963 183.335 127.798 183.175 127.677C183.016 127.556 182.84 127.49 182.642 127.49C182.444 127.49 182.262 127.55 182.092 127.666C181.921 127.781 181.784 127.952 181.685 128.172L178.912 134.377L177.152 128.062C177.102 127.864 177.003 127.721 176.855 127.622C176.712 127.523 176.552 127.473 176.382 127.473C176.123 127.473 175.898 127.556 175.7 127.721C175.502 127.886 175.408 128.1 175.408 128.353C175.408 128.441 175.425 128.54 175.463 128.65L177.702 135.994C177.773 136.203 177.906 136.363 178.087 136.484C178.269 136.599 178.483 136.654 178.731 136.654C178.951 136.654 179.16 136.599 179.363 136.489C179.567 136.379 179.71 136.225 179.798 136.033L182.405 130.191L184.111 135.994C184.182 136.214 184.314 136.385 184.507 136.5C184.694 136.616 184.908 136.676 185.139 136.676C185.359 136.676 185.568 136.621 185.761 136.511C185.959 136.401 186.107 136.242 186.206 136.033L189.639 128.683C189.7 128.562 189.733 128.43 189.733 128.282C189.733 128.062 189.639 127.875 189.463 127.721C189.287 127.567 189.084 127.49 188.847 127.49C188.687 127.49 188.539 127.539 188.39 127.633ZM198.776 132.22C198.903 132.094 198.969 131.907 198.969 131.659C198.969 130.279 198.639 129.222 197.984 128.491C197.329 127.765 196.389 127.402 195.168 127.402C194.287 127.402 193.506 127.611 192.835 128.023C192.159 128.441 191.636 129.024 191.262 129.778C190.888 130.532 190.706 131.39 190.706 132.358C190.706 133.227 190.882 133.992 191.245 134.652C191.608 135.318 192.12 135.824 192.78 136.181C193.44 136.533 194.21 136.709 195.091 136.709C195.679 136.709 196.262 136.627 196.845 136.456C197.428 136.28 197.885 136.06 198.215 135.791C198.457 135.598 198.584 135.356 198.584 135.075C198.584 134.894 198.529 134.734 198.419 134.597C198.309 134.465 198.166 134.399 197.995 134.399C197.858 134.399 197.726 134.443 197.588 134.525C196.856 135.015 196.059 135.263 195.201 135.263C194.348 135.263 193.693 135.015 193.237 134.514C192.786 134.019 192.555 133.321 192.538 132.413H198.254C198.474 132.413 198.644 132.353 198.776 132.22ZM193.457 129.42C193.897 128.98 194.491 128.76 195.239 128.76C195.927 128.76 196.455 128.98 196.829 129.42C197.203 129.861 197.373 130.504 197.351 131.351H192.615C192.736 130.504 193.017 129.861 193.457 129.42ZM207.919 127.935C207.341 127.578 206.676 127.402 205.928 127.402C205.328 127.402 204.772 127.528 204.266 127.787C203.76 128.045 203.353 128.397 203.045 128.854L203.414 124.354C203.425 124.096 203.353 123.892 203.199 123.743C203.045 123.6 202.836 123.523 202.566 123.523C202.297 123.523 202.066 123.606 201.868 123.765C201.675 123.925 201.571 124.134 201.56 124.387L200.641 135.791C200.625 136.077 200.702 136.291 200.861 136.445C201.021 136.599 201.235 136.676 201.499 136.676C201.769 136.676 202 136.599 202.181 136.445C202.363 136.291 202.462 136.077 202.473 135.791L202.528 135.02C202.797 135.56 203.188 135.978 203.694 136.269C204.206 136.566 204.805 136.709 205.504 136.709C206.34 136.709 207.077 136.506 207.721 136.088C208.359 135.67 208.86 135.086 209.217 134.333C209.569 133.579 209.745 132.716 209.745 131.736C209.745 130.867 209.586 130.103 209.272 129.448C208.953 128.793 208.502 128.287 207.919 127.935ZM207.165 134.322C206.709 134.938 206.071 135.241 205.251 135.241C204.453 135.241 203.843 134.993 203.414 134.498C202.984 134.003 202.77 133.282 202.77 132.342C202.77 131.274 203.001 130.433 203.469 129.817C203.931 129.195 204.569 128.887 205.377 128.887C206.175 128.887 206.786 129.14 207.215 129.641C207.644 130.141 207.858 130.862 207.858 131.791C207.858 132.87 207.627 133.711 207.165 134.322ZM212.908 136.484C213.469 136.632 214.047 136.709 214.63 136.709C215.807 136.709 216.731 136.478 217.408 136.005C218.079 135.532 218.415 134.883 218.415 134.047C218.415 133.497 218.277 133.051 217.991 132.716C217.711 132.38 217.375 132.127 216.984 131.956C216.594 131.786 216.077 131.604 215.439 131.423C214.74 131.225 214.234 131.038 213.909 130.851C213.585 130.669 213.42 130.4 213.42 130.048C213.42 129.641 213.585 129.332 213.915 129.129C214.245 128.92 214.718 128.815 215.329 128.815C216.104 128.815 216.847 129.052 217.573 129.531C217.716 129.63 217.87 129.679 218.03 129.679C218.211 129.679 218.365 129.608 218.481 129.464C218.596 129.327 218.657 129.162 218.657 128.98C218.657 128.711 218.525 128.485 218.266 128.298C217.953 128.029 217.529 127.814 217.001 127.649C216.473 127.484 215.95 127.402 215.422 127.402C214.283 127.402 213.376 127.649 212.694 128.155C212.017 128.656 211.676 129.321 211.676 130.158C211.676 130.691 211.819 131.131 212.1 131.467C212.38 131.802 212.716 132.061 213.106 132.231C213.502 132.402 214.014 132.578 214.652 132.765C215.351 132.958 215.862 133.15 216.192 133.343C216.522 133.53 216.687 133.805 216.687 134.157C216.687 134.916 216.044 135.296 214.762 135.296C213.783 135.296 212.875 135.026 212.045 134.487C211.907 134.404 211.775 134.36 211.638 134.36C211.456 134.36 211.302 134.432 211.17 134.58C211.043 134.729 210.977 134.899 210.977 135.097C210.977 135.411 211.137 135.67 211.456 135.868C211.858 136.126 212.342 136.33 212.908 136.484ZM220.555 136.456C220.72 136.599 220.94 136.676 221.209 136.676C221.479 136.676 221.704 136.605 221.886 136.462C222.067 136.324 222.172 136.099 222.199 135.791L222.805 128.298C222.816 128.018 222.744 127.803 222.584 127.66C222.425 127.512 222.21 127.435 221.941 127.435C221.682 127.435 221.457 127.512 221.264 127.66C221.066 127.803 220.962 128.018 220.951 128.298L220.346 135.791C220.318 136.088 220.39 136.308 220.555 136.456ZM221.336 125.344C221.545 125.542 221.825 125.636 222.183 125.636C222.535 125.636 222.815 125.542 223.025 125.344C223.234 125.146 223.338 124.893 223.338 124.574C223.338 124.255 223.228 124.002 223.014 123.809C222.799 123.622 222.524 123.523 222.183 123.523C221.825 123.523 221.545 123.622 221.336 123.809C221.127 124.002 221.022 124.255 221.022 124.574C221.022 124.893 221.127 125.146 221.336 125.344ZM227.414 133.26L227.744 129.052H229.582C230.143 129.052 230.423 128.804 230.423 128.298C230.423 128.095 230.357 127.93 230.225 127.803C230.088 127.682 229.906 127.622 229.675 127.622H227.854L228.003 125.729C228.025 125.46 227.959 125.245 227.799 125.086C227.64 124.926 227.42 124.849 227.139 124.849C226.87 124.849 226.644 124.926 226.457 125.086C226.276 125.245 226.171 125.454 226.149 125.713L226.001 127.622H224.9C224.614 127.622 224.4 127.688 224.257 127.814C224.108 127.941 224.037 128.122 224.037 128.353C224.037 128.573 224.103 128.749 224.235 128.87C224.372 128.991 224.559 129.052 224.807 129.052H225.891L225.561 133.315C225.549 133.425 225.538 133.579 225.538 133.772C225.538 134.701 225.797 135.428 226.314 135.939C226.826 136.456 227.546 136.709 228.482 136.709C229.081 136.709 229.499 136.649 229.736 136.528C229.978 136.407 230.093 136.192 230.093 135.884C230.093 135.675 230.055 135.516 229.967 135.4C229.879 135.285 229.763 135.224 229.62 135.224C229.532 135.224 229.417 135.235 229.268 135.252C229.12 135.268 228.977 135.279 228.828 135.279C228.377 135.279 228.025 135.136 227.772 134.85C227.519 134.558 227.398 134.14 227.398 133.59C227.398 133.442 227.403 133.332 227.414 133.26ZM239.12 132.22C239.252 132.094 239.313 131.907 239.313 131.659C239.313 130.279 238.988 129.222 238.334 128.491C237.679 127.765 236.738 127.402 235.512 127.402C234.632 127.402 233.856 127.611 233.179 128.023C232.508 128.441 231.986 129.024 231.612 129.778C231.238 130.532 231.05 131.39 231.05 132.358C231.05 133.227 231.232 133.992 231.59 134.652C231.953 135.318 232.464 135.824 233.124 136.181C233.784 136.533 234.56 136.709 235.44 136.709C236.029 136.709 236.612 136.627 237.195 136.456C237.773 136.28 238.229 136.06 238.559 135.791C238.807 135.598 238.928 135.356 238.928 135.075C238.928 134.894 238.873 134.734 238.763 134.597C238.653 134.465 238.51 134.399 238.339 134.399C238.207 134.399 238.07 134.443 237.938 134.525C237.201 135.015 236.408 135.263 235.55 135.263C234.692 135.263 234.037 135.015 233.586 134.514C233.13 134.019 232.899 133.321 232.888 132.413H238.598C238.818 132.413 238.994 132.353 239.12 132.22ZM233.806 129.42C234.247 128.98 234.841 128.76 235.589 128.76C236.271 128.76 236.799 128.98 237.173 129.42C237.547 129.861 237.723 130.504 237.696 131.351H232.959C233.08 130.504 233.366 129.861 233.806 129.42Z"
          fill="#DADADA"/>
    <path d="M96.5099 52.5856C95.7407 53.0751 95.9504 54.2639 96.9294 54.4037C99.7965 54.8233 104.621 54.8932 109.237 52.7254C114.411 55.6624 120.565 57.3407 127.138 57.3407C145.319 57.3407 160.144 44.474 160.144 28.6703C160.144 12.8667 145.319 0 127.138 0C108.957 0 94.1323 12.8667 94.1323 28.6703C94.1323 35.5232 96.9294 41.8867 101.615 46.7816C100.566 48.8794 98.9573 50.9773 96.5099 52.5856ZM100.496 28.6703C100.496 16.3631 112.453 6.29349 127.138 6.29349C141.823 6.29349 153.781 16.2931 153.781 28.6703C153.781 40.9776 141.823 51.0472 127.138 51.0472C112.453 51.0472 100.496 40.9776 100.496 28.6703ZM112.453 33.5653V23.7754C112.453 21.3279 114.411 19.37 116.859 19.37H131.753C134.201 19.37 136.159 21.3279 136.159 23.7754V24.6145L141.124 21.6776C141.893 21.1881 142.942 21.8174 142.942 22.7265V34.6142C142.942 35.5232 141.963 36.0827 141.124 35.6631L136.159 32.7961V33.5653C136.159 36.0127 134.201 37.9707 131.753 37.9707H116.859C114.411 38.0406 112.453 36.0127 112.453 33.5653Z"
          fill="#DADADA"/>
</svg>
