<svg viewBox="0 0 90 84" fill="none" xmlns="http://www.w3.org/2000/svg">
<path d="M30.8542 10.6824C31.2622 9.92244 31.6439 9.1471 32.0822 8.4051C34.5182 4.2841 38.1189 1.6981 42.8365 1.11043C48.8489 0.361764 54.4685 2.4651 57.8905 8.24344C62.3735 15.8128 66.7062 23.4714 71.1019 31.0925C76.7419 40.8718 82.3742 50.6561 88.0232 60.4301C89.6612 63.2645 90.2838 66.3595 89.8802 69.5318C89.0855 75.7782 85.6258 80.0532 79.6668 82.1778C77.8912 82.8112 76.0038 83.1842 74.1078 82.9748C68.9155 82.4015 64.7662 80.0458 62.0849 75.4652C58.3872 69.1495 54.7652 62.7898 51.1029 56.4535C49.0912 52.9735 47.0632 49.5021 45.0419 46.0271C44.8599 45.6851 44.6882 45.3371 44.4942 45.0015C42.8599 42.1678 41.2185 39.3375 39.5842 36.5035C37.6626 33.1725 35.7349 29.8455 33.8306 26.5048C32.3002 23.8208 30.5649 21.2361 30.1356 18.0501C29.9319 16.5348 29.8766 15.0568 30.2132 13.5664C30.4306 12.6058 30.6409 11.6441 30.8542 10.6824Z" fill="white"/>
<path d="M30.8541 10.6836C30.6408 11.6453 30.4305 12.6069 30.2131 13.5676C29.8761 15.0576 29.9315 16.5356 30.1355 18.0513C30.5648 21.2373 32.3001 23.8219 33.8305 26.5059C35.7348 29.8463 37.6625 33.1736 39.5841 36.5046C41.2184 39.3383 42.8598 42.1689 44.4941 45.0026C44.6881 45.3383 44.8598 45.6863 45.0418 46.0283C42.8201 49.8553 40.5924 53.6793 38.3775 57.5106C35.5128 62.465 32.6598 67.426 29.7961 72.3813C29.6571 72.622 29.4668 72.833 29.3001 73.058C29.2688 72.9503 29.1791 72.8173 29.2135 72.738C30.1905 70.49 30.1921 68.077 29.8521 65.784C28.9721 59.8493 25.5311 55.8403 19.9205 53.7229C18.0368 53.012 16.0708 52.993 14.0721 53.0439C11.4978 53.1099 9.16082 53.8466 7.07682 55.2653C5.76349 56.1593 4.63516 57.325 3.42383 58.3686C3.50049 58.1386 3.54083 57.8876 3.65949 57.6813C12.5578 42.2413 21.4615 26.8039 30.3691 11.3686C30.5088 11.1273 30.6918 10.9113 30.8541 10.6836Z" fill="#E5C851"/>
<path d="M3.66016 57.6799C12.5585 42.2399 21.4625 26.8025 30.3698 11.3672L3.66016 57.6799Z" fill="#E5C851"/>
<path d="M3.42455 58.3673C4.63588 57.3236 5.76388 56.158 7.07721 55.264C9.16154 53.8453 11.4989 53.1086 14.0729 53.0426C16.0715 52.9916 18.0375 53.0106 19.9212 53.7216C25.5319 55.839 28.9732 59.848 29.8525 65.7826C30.1929 68.0756 30.1909 70.4886 29.2142 72.7366C29.1795 72.816 29.2695 72.949 29.3012 73.0566C29.0219 73.6003 28.7519 74.1493 28.4609 74.6866C25.9202 79.372 22.0269 82.0833 16.7342 82.842C10.3932 83.751 3.90788 79.7437 1.40789 74.1253C0.386887 71.832 -0.146112 69.4466 0.0348874 66.9613C0.219554 64.4256 1.02922 62.0503 2.38755 59.8783C2.65788 59.4466 2.89555 58.9946 3.14855 58.552C3.24455 58.4876 3.34022 58.4233 3.43555 58.3593L3.42455 58.3673Z" fill="white"/>
<path d="M3.43544 58.3594C3.33977 58.4234 3.2441 58.4877 3.14844 58.552C3.2441 58.488 3.3401 58.4234 3.43544 58.3594Z" fill="#FABB05"/>
</svg>
