<svg width="39" height="39" viewBox="0 0 39 39" fill="none" xmlns="http://www.w3.org/2000/svg">
    <path d="M19.1543 38.0509C8.66368 38.0509 0.129883 29.5161 0.129883 19.0244C0.129883 8.5338 8.66469 0 19.1543 0C29.647 0 38.1808 8.53481 38.1808 19.0244C38.1818 29.5171 29.647 38.0509 19.1543 38.0509ZM19.1543 2.02679C9.78247 2.02679 2.15667 9.65259 2.15667 19.0244C2.15667 28.3983 9.78247 36.0242 19.1543 36.0242C28.5282 36.0242 36.154 28.3983 36.154 19.0244C36.155 9.65259 28.5282 2.02679 19.1543 2.02679Z"
          fill="url(#paint0_linear)"/>
    <path d="M11.3822 16.0883H14.5724V27.2123H11.3822V16.0883ZM12.8963 14.6969H12.8729C11.7187 14.6969 10.9688 13.8476 10.9688 12.7714C10.9688 11.6729 11.7389 10.8379 12.9185 10.8379C14.0961 10.8379 14.8207 11.6709 14.842 12.7674C14.842 13.8436 14.0951 14.6969 12.8963 14.6969ZM27.3432 27.2133H23.7254V21.4552C23.7254 19.9493 23.1589 18.9217 21.9144 18.9217C20.9629 18.9217 20.4318 19.6149 20.1866 20.2837C20.0934 20.5229 20.1075 20.8573 20.1075 21.1938V27.2123H16.5211C16.5211 27.2123 16.5688 17.0145 16.5211 16.0862H20.1075V17.8323C20.3193 17.0702 21.4655 15.9798 23.2947 15.9798C25.5627 15.9798 27.3442 17.581 27.3442 21.0265V27.2133H27.3432Z"
          fill="url(#paint1_linear)"/>
    <defs>
        <linearGradient id="paint0_linear" x1="5.70801" y1="32.4718" x2="32.6025" y2="5.57722"
                        gradientUnits="userSpaceOnUse">
            <stop stop-color="#EBCC70"/>
            <stop offset="0.5" stop-color="#F4EADC"/>
            <stop offset="1" stop-color="#EBCC70"/>
        </linearGradient>
        <linearGradient id="paint1_linear" x1="11.4475" y1="27.2778" x2="23.846" y2="14.8792"
                        gradientUnits="userSpaceOnUse">
            <stop stop-color="#EBCC70"/>
            <stop offset="0.5" stop-color="#F4EADC"/>
            <stop offset="1" stop-color="#EBCC70"/>
        </linearGradient>
    </defs>
</svg>
