<svg width="267" height="140" viewBox="0 0 267 140" fill="none" xmlns="http://www.w3.org/2000/svg">
    <path d="M150.767 64.1064C126.839 64.1064 107.442 44.6916 107.442 20.7423C107.442 13.2289 109.353 6.16169 112.713 0C99.2474 7.354 90.1118 21.6521 90.1118 38.0871C90.1118 62.0363 109.509 81.4503 133.437 81.4503C149.857 81.4503 164.142 72.307 171.491 58.8303C165.335 62.194 158.275 64.1064 150.767 64.1064Z"
          fill="#DADADA"/>
    <path d="M116.108 64.1064C140.035 64.1064 159.433 44.6916 159.433 20.7423C159.433 13.2289 157.522 6.16169 154.163 0C167.627 7.354 176.763 21.6521 176.763 38.0871C176.763 62.0363 157.366 81.4503 133.438 81.4503C117.018 81.4503 102.732 72.307 95.3838 58.8303C101.539 62.194 108.601 64.1064 116.108 64.1064Z"
          fill="#DADADA"/>
    <path d="M133.438 38.0925C142.052 38.0925 149.035 31.1095 149.035 22.4955C149.035 13.8815 142.052 6.89844 133.438 6.89844C124.824 6.89844 117.841 13.8815 117.841 22.4955C117.841 31.1095 124.824 38.0925 133.438 38.0925Z"
          fill="#DADADA"/>
    <path d="M18.2841 118.086C16.3656 117.187 14.6716 115.955 13.2038 114.391C11.7827 112.876 10.6571 111.087 9.82873 109.027C9.82093 109.007 9.81573 108.986 9.80793 108.966C9.65716 108.639 9.51332 108.294 9.37815 107.927C8.9215 106.684 8.67801 105.095 8.62082 103.204C8.60956 102.931 8.58443 102.662 8.58443 102.386C8.58443 101.958 8.61042 101.54 8.63382 101.125C8.64075 100.985 8.64162 100.835 8.65115 100.7C8.65722 100.624 8.66675 100.55 8.67368 100.474C8.756 99.4006 8.9137 98.4474 9.14333 97.6052C9.29583 96.9726 9.47 96.3479 9.68662 95.7413C10.4206 93.6816 11.4742 91.8958 12.8476 90.3794C14.221 88.8145 15.8908 87.5823 17.8569 86.6821C18.5397 86.3701 19.2606 86.131 19.998 85.9273C18.6766 85.5461 17.2962 85.332 15.844 85.332C13.4282 85.332 11.2368 85.7835 9.27157 86.6821C7.30461 87.5823 5.63573 88.8145 4.26232 90.3794C2.88805 91.8958 1.83438 93.6834 1.10132 95.7413C0.36566 97.8027 0 100.019 0 102.386C0 104.754 0.415052 106.969 1.24429 109.028C2.0718 111.09 3.19826 112.877 4.61932 114.392C6.08718 115.957 7.78119 117.189 9.69962 118.088C11.6181 118.988 13.6665 119.438 15.8457 119.438C17.434 119.438 18.9149 119.224 20.3082 118.835C19.6193 118.629 18.9417 118.394 18.2841 118.086Z"
          fill="#DADADA"/>
    <path d="M27.4267 114.391C28.8001 112.877 29.8651 111.087 30.6233 109.027C31.3806 106.967 31.761 104.753 31.761 102.384C31.761 100.017 31.3459 97.8012 30.5167 95.7398C29.6874 93.6801 28.5385 91.8934 27.0706 90.377C25.6495 88.813 23.9798 87.5808 22.0614 86.6805C21.3942 86.3677 20.7027 86.1294 19.9982 85.9258C19.2608 86.1294 18.5399 86.3677 17.8571 86.6805C15.8901 87.5808 14.2212 88.813 12.8478 90.377C11.4736 91.8934 10.4199 93.681 9.68685 95.7398C9.47022 96.3463 9.29606 96.9711 9.14355 97.6045C9.21807 97.3324 9.28912 97.0543 9.37924 96.8056C9.90001 95.362 10.5395 94.2485 11.2977 93.4661C12.055 92.6845 12.8487 92.1499 13.678 91.8657C14.5063 91.5823 15.229 91.4402 15.8451 91.4402C16.4603 91.4402 17.183 91.5823 18.0122 91.8657C18.8406 92.1499 19.6343 92.6828 20.3925 93.4661C21.1498 94.2468 21.7884 95.362 22.3109 96.8056C22.8317 98.2509 23.0925 100.11 23.0925 102.384C23.0925 104.657 22.8308 106.505 22.3109 107.926C21.7884 109.346 21.1498 110.46 20.3925 111.266C19.6343 112.072 18.8406 112.617 18.0122 112.901C17.183 113.183 16.4603 113.325 15.8451 113.325C15.229 113.325 14.5063 113.183 13.678 112.901C12.8487 112.617 12.055 112.072 11.2977 111.266C10.7362 110.669 10.2397 109.9 9.80903 108.966C9.81682 108.986 9.82203 109.007 9.82982 109.027C10.6573 111.088 11.7838 112.877 13.2048 114.391C14.6727 115.955 16.3667 117.187 18.2851 118.086C18.942 118.394 19.6204 118.629 20.3084 118.832C21.0346 118.629 21.7442 118.394 22.4184 118.086C24.3827 117.187 26.0525 115.955 27.4267 114.391Z"
          fill="#DADADA"/>
    <path d="M265.912 108.236C264.538 109.8 262.866 111.032 260.903 111.93C258.936 112.831 256.746 113.282 254.33 113.282C254.229 113.282 254.132 113.267 254.03 113.264C253.763 113.284 253.504 113.308 253.208 113.308C252.215 113.216 251.301 113.049 250.474 112.813C249.644 112.577 248.899 112.291 248.236 111.961C247.527 111.677 246.86 111.404 246.246 111.145C245.63 110.884 244.99 110.754 244.327 110.754C243.76 110.754 243.19 110.896 242.622 111.18C242.384 111.37 242.125 111.583 241.841 111.819C241.556 112.055 241.296 112.365 241.059 112.742L240.847 113.027L241.059 113.237C242.526 115.038 244.363 116.483 246.566 117.572C248.767 118.662 251.006 119.253 253.279 119.349C253.515 119.397 253.824 119.42 254.202 119.42C256.145 119.42 257.837 119.172 259.282 118.674C260.728 118.178 261.958 117.551 262.977 116.792C263.997 116.034 264.791 115.177 265.358 114.252C265.927 113.327 266.328 112.458 266.566 111.604C266.967 109.963 267.014 108.516 266.715 107.254C266.458 107.591 266.195 107.923 265.912 108.236Z"
          fill="#DADADA"/>
    <path d="M100.988 118.086C99.0697 117.187 97.3757 115.955 95.9079 114.391C94.4868 112.876 93.3612 111.087 92.5328 109.027C92.525 109.007 92.5198 108.986 92.512 108.966C92.3613 108.639 92.2174 108.294 92.0822 107.927C91.6256 106.684 91.3821 105.095 91.3249 103.204C91.3137 102.931 91.2885 102.662 91.2885 102.386C91.2885 101.958 91.3145 101.54 91.3379 101.125C91.3449 100.985 91.3457 100.835 91.3552 100.7C91.3613 100.624 91.3708 100.55 91.3778 100.474C91.4601 99.4006 91.6178 98.4474 91.8474 97.6052C91.9999 96.9726 92.1741 96.3479 92.3907 95.7413C93.1247 93.6816 94.1783 91.8958 95.5517 90.3794C96.9251 88.8145 98.5949 87.5823 100.561 86.6821C101.244 86.3701 101.965 86.131 102.702 85.9273C101.381 85.5461 100 85.332 98.5481 85.332C96.1323 85.332 93.9409 85.7835 91.9757 86.6821C90.0087 87.5823 88.3398 88.8145 86.9664 90.3794C85.5922 91.8958 84.5385 93.6834 83.8054 95.7413C83.0698 97.8027 82.7041 100.019 82.7041 102.386C82.7041 104.754 83.1192 106.969 83.9484 109.028C84.7759 111.09 85.9024 112.877 87.3234 114.392C88.7913 115.957 90.4853 117.189 92.4037 118.088C94.3222 118.988 96.3706 119.438 98.5498 119.438C100.138 119.438 101.619 119.224 103.012 118.835C102.323 118.629 101.645 118.394 100.988 118.086Z"
          fill="#DADADA"/>
    <path d="M91.3555 100.699C91.3607 100.619 91.3719 100.551 91.378 100.473C91.3711 100.548 91.3615 100.623 91.3555 100.699Z"
          fill="#DADADA"/>
    <path d="M110.131 114.391C111.504 112.877 112.569 111.087 113.327 109.027C114.085 106.967 114.465 104.753 114.465 102.384C114.465 100.017 114.05 97.8012 113.221 95.7398C112.392 93.6801 111.243 91.8934 109.775 90.377C108.354 88.813 106.684 87.5808 104.765 86.6805C104.098 86.3677 103.407 86.1294 102.702 85.9258C101.965 86.1294 101.244 86.3677 100.561 86.6805C98.5942 87.5808 96.9254 88.813 95.5519 90.377C94.1777 91.8934 93.124 93.681 92.391 95.7398C92.1743 96.3463 92.0002 96.9711 91.8477 97.6045C91.9222 97.3324 91.9932 97.0543 92.0833 96.8056C92.6041 95.362 93.2436 94.2485 94.0018 93.4661C94.7591 92.6845 95.5528 92.1499 96.3821 91.8657C97.2104 91.5823 97.9331 91.4402 98.5492 91.4402C99.1644 91.4402 99.8871 91.5823 100.716 91.8657C101.545 92.1499 102.338 92.6828 103.097 93.4661C103.854 94.2468 104.493 95.362 105.015 96.8056C105.536 98.2509 105.797 100.11 105.797 102.384C105.797 104.657 105.535 106.505 105.015 107.926C104.493 109.346 103.854 110.46 103.097 111.266C102.338 112.072 101.545 112.617 100.716 112.901C99.8871 113.183 99.1644 113.325 98.5492 113.325C97.9331 113.325 97.2104 113.183 96.3821 112.901C95.5528 112.617 94.7591 112.072 94.0018 111.266C93.4403 110.669 92.9438 109.9 92.5131 108.966C92.5209 108.986 92.5261 109.007 92.5339 109.027C93.3614 111.088 94.4879 112.877 95.9089 114.391C97.3768 115.955 99.0708 117.187 100.989 118.086C101.646 118.394 102.325 118.629 103.013 118.832C103.739 118.629 104.448 118.394 105.122 118.086C107.086 117.187 108.757 115.955 110.131 114.391Z"
          fill="#DADADA"/>
    <path d="M62.3413 93.7354C64.2009 92.8853 66.2709 92.4512 68.5342 92.4053V92.3646H71.2334C73.4118 92.3646 75.0937 91.7259 76.2782 90.447C77.4618 89.1672 78.0554 87.4619 78.0554 85.3312H68.5342L68.4632 80.8557C68.4632 79.4329 68.4745 78.2856 68.4987 77.4087C68.5221 76.5318 68.5576 75.8335 68.6053 75.3118C68.6521 74.7434 68.6997 74.2928 68.7474 73.9609C65.8568 73.9609 63.655 74.577 62.1386 75.8092C60.6222 77.0413 59.8658 79.0768 59.8658 81.9206L59.8198 95.1989C60.5997 94.6417 61.4359 94.1496 62.3413 93.7354Z"
          fill="#DADADA"/>
    <path d="M60.8958 109.881C61.6297 111.99 62.6123 113.753 63.8445 115.173C65.0758 116.596 66.4492 117.659 67.9655 118.37C69.4811 119.079 71.02 119.435 72.584 119.435C74.4782 119.435 76.089 118.961 77.4156 118.013C78.0785 117.54 78.5984 116.96 78.9788 116.273C79.3574 115.586 79.5472 114.814 79.5472 113.963C79.5472 113.633 79.4987 113.277 79.4051 112.898C79.3566 112.708 79.3341 112.543 79.3341 112.401C78.9077 112.543 78.4563 112.685 77.984 112.827C77.1314 113.063 76.2779 113.18 75.4253 113.18C73.3881 113.18 71.7305 112.376 70.4524 110.765C69.8363 109.913 69.3511 108.81 68.9958 107.461C68.6405 106.11 68.4629 104.442 68.4629 102.453L68.534 92.4023C66.2707 92.4483 64.2006 92.8824 62.3411 93.7324C61.4356 94.1475 60.5994 94.6397 59.8196 95.1959L59.7944 102.451C59.7953 105.298 60.161 107.774 60.8958 109.881Z"
          fill="#DADADA"/>
    <path d="M41.3886 97.4107C42.7628 95.8467 44.4317 94.6145 46.3978 93.7142C47.7071 93.1155 49.1264 92.7334 50.6376 92.5341C51.2424 92.3634 51.8533 92.2264 52.4729 92.1519C53.705 92.0098 54.5923 91.6086 55.1374 90.9432C55.6815 90.2812 56.0013 89.594 56.0957 88.8835C56.2378 88.0308 56.1902 87.1063 55.9536 86.1133H52.472C50.6714 86.1133 48.8595 86.3143 47.0373 86.7155C45.2133 87.1201 43.567 87.8887 42.0991 89.0256C40.6304 90.1633 39.4346 91.7386 38.5109 93.7506C37.5872 95.7644 37.1245 98.357 37.1245 101.531V109.42C37.1245 107.052 37.4919 104.837 38.2258 102.774C38.9606 100.714 40.0143 98.9271 41.3886 97.4107Z"
          fill="#DADADA"/>
    <path d="M39.4699 116.847C41.0339 118.055 43.2591 118.658 46.1489 118.658C46.1012 118.374 46.0544 117.948 46.0068 117.379C45.9591 116.858 45.9236 116.159 45.901 115.283C45.8768 114.406 45.8655 113.257 45.8655 111.836V101.532C45.8655 99.5434 46.0657 97.956 46.4686 96.7724C46.8707 95.5896 47.3802 94.6772 47.9971 94.0377C48.6115 93.3982 49.3116 92.9476 50.0932 92.6859C50.2734 92.6279 50.4554 92.5871 50.6373 92.5352C49.127 92.7336 47.7077 93.1166 46.3976 93.7153C44.4297 94.6156 42.7626 95.8478 41.3883 97.4118C40.014 98.9282 38.9604 100.716 38.2273 102.775C37.4925 104.837 37.126 107.053 37.126 109.42V110.769C37.1251 113.612 37.9067 115.638 39.4699 116.847Z"
          fill="#DADADA"/>
    <path d="M207.941 117.481C205.762 117.481 203.714 117.03 201.795 116.13C199.877 115.232 198.183 113.999 196.715 112.435C196.542 112.25 196.407 112.056 196.3 111.854C196.214 111.778 196.131 111.705 196.049 111.62C195.484 111.033 195.026 110.224 194.665 109.212C194.283 108.249 194.225 107.573 194.225 107.573L194.229 107.566C194.048 106.565 193.952 105.391 193.952 104.017L193.882 93.0024C193.882 91.5805 193.894 90.4211 193.917 89.5208C193.939 88.6205 193.975 87.9117 194.023 87.3883C194.071 86.8199 194.117 86.3953 194.166 86.1094C191.227 86.1094 188.989 86.7116 187.452 87.9212C185.912 89.13 185.142 91.1524 185.142 93.9971L185.071 104.017C185.071 107.19 185.533 109.771 186.457 111.761C187.381 113.75 188.589 115.314 190.081 116.45C191.575 117.587 193.243 118.368 195.09 118.794C196.938 119.22 198.761 119.433 200.561 119.433C202.36 119.433 204.185 119.22 206.031 118.794C207.302 118.501 208.481 118.027 209.585 117.399C209.047 117.451 208.502 117.481 207.941 117.481Z"
          fill="#DADADA"/>
    <path d="M211.427 116.117C212.739 115.013 213.836 113.573 214.698 111.765C215.646 109.774 216.121 107.194 216.121 104.02L216.05 93.0063C216.05 91.5844 216.061 90.425 216.086 89.5247C216.107 88.6244 216.142 87.9156 216.192 87.3922C216.238 86.8238 216.284 86.3992 216.334 86.1133C213.395 86.1133 211.148 86.7155 209.583 87.9251C208.019 89.1339 207.24 91.1563 207.24 94.001L207.169 104.02C207.169 106.009 206.976 107.609 206.6 108.815C206.22 110.024 205.712 110.959 205.072 111.622C204.431 112.285 203.72 112.736 202.94 112.973C202.159 113.21 201.366 113.327 200.56 113.327C199.753 113.327 198.959 113.21 198.18 112.973C197.517 112.774 196.911 112.41 196.351 111.906C196.333 111.888 196.317 111.872 196.298 111.856C196.406 112.057 196.54 112.252 196.713 112.437C198.181 114.001 199.875 115.234 201.794 116.132C203.712 117.032 205.761 117.483 207.94 117.483C208.5 117.483 209.045 117.453 209.583 117.404C210.084 117.119 210.575 116.81 211.041 116.455C211.176 116.35 211.297 116.227 211.427 116.117Z"
          fill="#DADADA"/>
    <path d="M131.568 99.1994C121.188 99.1994 120.483 102.717 120.483 102.717H120.51H135.831C138.009 102.717 139.691 102.077 140.875 100.797C141.314 100.323 141.67 99.7904 141.946 99.1994C142.415 98.196 142.65 97.0228 142.65 95.6797C142.652 95.6814 141.948 99.1994 131.568 99.1994Z"
          fill="#DADADA"/>
    <path d="M131.568 99.2493C141.948 99.2493 142.652 95.7305 142.652 95.7305H127.304C125.124 95.7305 123.443 96.3699 122.26 97.6498C121.075 98.9296 120.483 100.633 120.483 102.766C120.483 102.766 121.188 99.2493 131.568 99.2493Z"
          fill="#DADADA"/>
    <path d="M227.158 76.2926V109.084C227.158 109.084 226.903 115.803 234 113.31V113.309C233.853 113.305 233.705 113.291 233.558 113.266C232.989 113.174 232.492 112.877 232.064 112.381C231.637 111.883 231.425 111.064 231.425 109.928V77.1729C231.425 74.3767 230.646 72.3647 229.082 71.1326C227.575 69.9463 225.424 69.3372 222.643 69.293C223.699 69.3675 227.158 70.0798 227.158 76.2926Z"
          fill="#DADADA"/>
    <path d="M168.102 118.792C167.467 118.596 166.84 118.374 166.23 118.088C164.311 117.189 162.617 115.957 161.15 114.392C159.902 113.061 158.893 111.505 158.102 109.753C157.809 109.226 157.541 108.636 157.298 107.965C156.776 106.518 156.517 104.66 156.517 102.387C156.517 100.389 156.73 98.7433 157.132 97.4046C157.275 96.8405 157.439 96.2851 157.632 95.7426C158.366 93.683 159.419 91.8971 160.793 90.3807C162.167 88.8158 163.836 87.5836 165.802 86.6833C166.523 86.3532 167.285 86.1045 168.067 85.8966C166.719 85.5361 165.291 85.3359 163.762 85.3359C161.536 85.3359 159.463 85.7865 157.546 86.6851C155.626 87.5854 153.957 88.8175 152.537 90.3816C151.115 91.898 149.99 93.6855 149.161 95.7444C148.331 97.8058 147.916 100.021 147.916 102.389V127.536C147.916 130.379 148.687 132.416 150.226 133.648C151.764 134.878 154.001 135.494 156.939 135.494C156.892 135.212 156.846 134.785 156.797 134.216C156.75 133.693 156.714 132.984 156.691 132.084C156.668 131.183 156.656 130.024 156.656 128.601L156.585 117.8C158.669 118.89 161.061 119.435 163.761 119.435C165.285 119.437 166.726 119.212 168.102 118.792Z"
          fill="#DADADA"/>
    <path d="M174.993 114.392C176.459 112.877 177.61 111.089 178.439 109.029C179.267 106.97 179.683 104.754 179.683 102.385C179.683 100.018 179.304 97.802 178.545 95.7406C177.787 93.6809 176.722 91.8942 175.349 90.3778C173.975 88.8138 172.304 87.5816 170.34 86.6813C169.617 86.3512 168.854 86.1025 168.072 85.8945C167.29 86.1025 166.528 86.3512 165.807 86.6813C163.839 87.5816 162.173 88.8138 160.798 90.3778C159.424 91.8942 158.37 93.6818 157.638 95.7406C157.443 96.283 157.28 96.8393 157.138 97.4025C157.192 97.2162 157.241 97.0169 157.304 96.8428C157.826 95.4208 158.463 94.3213 159.222 93.5388C159.98 92.7564 160.774 92.2234 161.603 91.9392C162.43 91.655 163.153 91.5129 163.769 91.5129C164.385 91.5129 165.108 91.655 165.937 91.9392C166.765 92.2234 167.558 92.7555 168.316 93.5388C169.075 94.3204 169.713 95.4208 170.236 96.8428C170.757 98.2656 171.017 100.11 171.017 102.385C171.017 104.658 170.756 106.518 170.236 107.964C169.713 109.41 169.075 110.52 168.316 111.304C167.558 112.085 166.765 112.617 165.937 112.902C165.108 113.184 164.385 113.326 163.769 113.326C163.153 113.326 162.43 113.184 161.603 112.902C160.774 112.617 159.98 112.086 159.222 111.304C158.815 110.884 158.445 110.361 158.107 109.752C158.898 111.505 159.905 113.06 161.155 114.392C162.623 115.956 164.316 117.188 166.235 118.087C166.845 118.373 167.472 118.596 168.108 118.792C168.748 118.595 169.379 118.373 169.987 118.087C171.901 117.188 173.57 115.956 174.993 114.392Z"
          fill="#DADADA"/>
    <path d="M222.62 72.7204C222.642 73.5973 222.678 74.7445 222.726 76.1673V110.77C222.726 111.955 222.903 113.093 223.258 114.182C223.614 115.272 224.159 116.22 224.894 117.025C225.629 117.83 226.538 118.457 227.628 118.907C228.719 119.357 229.997 119.51 231.466 119.368C232.982 119.274 234.095 118.836 234.805 118.052C235.516 117.272 235.988 116.454 236.226 115.602C236.51 114.608 236.605 113.494 236.51 112.262C236.274 112.595 235.871 112.866 235.303 113.079C234.882 113.237 234.46 113.31 234.039 113.298V113.3C226.944 115.792 227.198 109.074 227.198 109.074V76.2817C227.198 70.0689 223.739 69.3566 222.682 69.2821C222.577 69.2804 222.478 69.2734 222.371 69.2734C222.417 69.607 222.463 70.055 222.511 70.6243C222.561 71.1442 222.596 71.8435 222.62 72.7204Z"
          fill="#DADADA"/>
    <path d="M242.764 97.5177C243.094 98.5835 243.626 99.5791 244.362 100.501C245.097 101.425 246.033 102.218 247.169 102.882C248.683 103.83 250.129 104.587 251.504 105.155C252.876 105.723 254.073 106.256 255.092 106.755C256.111 107.253 256.891 107.774 257.437 108.319C257.981 108.864 258.206 109.539 258.111 110.343C258.016 111.007 257.6 111.669 256.867 112.333C256.258 112.882 255.3 113.189 254.03 113.284C254.129 113.287 254.228 113.301 254.33 113.301C256.746 113.301 258.936 112.85 260.903 111.95C262.868 111.052 264.538 109.819 265.912 108.254C266.195 107.943 266.458 107.61 266.715 107.273C266.625 106.893 266.508 106.533 266.355 106.186C265.689 104.693 264.72 103.416 263.441 102.349C262.162 101.283 260.694 100.384 259.035 99.6501C257.377 98.9162 255.813 98.2403 254.346 97.6242C253.068 97.1026 252.096 96.548 251.434 95.9536C250.77 95.3627 250.486 94.6166 250.582 93.7163C250.676 93.1002 250.985 92.5691 251.505 92.1168C252.027 91.667 252.807 91.4417 253.849 91.4417C254.211 91.4417 254.57 91.4721 254.925 91.5249C253.84 91.2762 252.712 91.1445 251.543 91.1445C249.127 91.1445 246.935 91.5951 244.97 92.4937C244.031 92.9235 243.164 93.4338 242.359 94.0161C242.354 94.0941 242.341 94.1729 242.34 94.2509C242.29 95.3635 242.434 96.451 242.764 97.5177Z"
          fill="#DADADA"/>
    <path d="M244.969 92.5119C246.934 91.6133 249.125 91.1619 251.541 91.1619C252.713 91.1619 253.838 91.2945 254.925 91.5431C255.363 91.6073 255.798 91.7069 256.228 91.8499C257.01 92.1116 257.849 92.4304 258.75 92.8091C259.46 93.0924 260.124 93.3662 260.74 93.6253C261.354 93.8861 261.994 94.0161 262.658 94.0161C263.322 94.0161 263.913 93.8671 264.436 93.5352C265.004 93.2033 265.524 92.6904 266 92.0258L266.213 91.7416L266 91.5284C264.532 89.7296 262.754 88.2859 260.671 87.1942C258.587 86.1058 256.289 85.4898 253.778 85.3477H252.928C252.12 85.3477 251.246 85.4421 250.298 85.6318C249.35 85.8216 248.416 86.1414 247.492 86.5893C246.569 87.0408 245.728 87.6188 244.97 88.331C244.211 89.0415 243.595 89.9184 243.122 90.9591C242.681 91.9729 242.433 92.9954 242.362 94.0291C243.163 93.4512 244.029 92.9408 244.969 92.5119Z"
          fill="#DADADA"/>
    <path d="M88.6034 135.477C87.9258 135.477 87.3184 135.396 86.7803 135.238C86.2422 135.078 85.7803 134.89 85.3948 134.671C85.0092 134.452 84.7007 134.229 84.4685 134.003C84.2354 133.777 84.0924 133.597 84.0396 133.465L84.0993 133.405C84.2189 133.232 84.3524 133.094 84.4979 132.987C84.6305 132.907 84.77 132.867 84.9164 132.867C85.0092 132.867 85.0984 132.881 85.1859 132.907C85.2717 132.933 85.3679 132.966 85.4745 133.006C85.5811 133.033 85.6868 133.069 85.7934 133.116C85.8999 133.163 86.0195 133.218 86.1521 133.285C86.4181 133.392 86.73 133.487 87.0888 133.574C87.4475 133.661 87.879 133.717 88.3842 133.743H88.6034C89.0947 133.743 89.5132 133.687 89.859 133.574C90.2047 133.461 90.4837 133.315 90.696 133.135C90.9083 132.956 91.0608 132.756 91.1544 132.538C91.248 132.321 91.2939 132.109 91.2939 131.91C91.3069 131.565 91.2038 131.248 90.9863 130.962C90.7671 130.678 90.4638 130.402 90.0799 130.136C89.6943 129.869 89.2429 129.598 88.7247 129.319C88.2066 129.04 87.6546 128.741 87.0706 128.422C86.114 127.877 85.4034 127.27 84.9381 126.599C84.4728 125.929 84.2735 125.22 84.3402 124.477C84.3931 123.918 84.5456 123.434 84.7986 123.021C85.0508 122.609 85.367 122.268 85.7457 121.995C86.1243 121.723 86.5489 121.522 87.0212 121.397C87.4926 121.27 87.9683 121.207 88.4466 121.207C89.2568 121.207 89.9673 121.314 90.579 121.526C91.1899 121.738 91.7081 121.972 92.1335 122.224C92.6249 122.517 93.0434 122.85 93.3891 123.22L93.3492 123.28C93.1898 123.478 93.0572 123.612 92.9507 123.678C92.8172 123.77 92.6716 123.818 92.5122 123.818C92.3658 123.818 92.1864 123.77 91.9741 123.678C91.8675 123.638 91.7575 123.594 91.6448 123.549C91.5322 123.504 91.4092 123.453 91.2766 123.399C90.891 123.253 90.482 123.137 90.0505 123.052C89.6181 122.964 89.2368 122.928 88.9041 122.941C88.7317 122.941 88.5454 122.956 88.3461 122.981C88.1468 123.008 87.957 123.055 87.7776 123.12C87.5983 123.187 87.4388 123.281 87.2993 123.399C87.1598 123.519 87.0636 123.67 87.0108 123.858C86.8912 124.256 86.9744 124.608 87.2595 124.914C87.5446 125.22 87.9301 125.519 88.4154 125.811C88.9006 126.103 89.4387 126.392 90.0297 126.677C90.6206 126.963 91.1752 127.286 91.6934 127.644C92.4108 128.149 92.9455 128.664 93.2981 129.188C93.6508 129.712 93.8657 130.227 93.9463 130.732C94.026 131.237 93.9991 131.723 93.8666 132.186C93.734 132.652 93.5477 133.065 93.3085 133.424C92.8831 134.088 92.2488 134.597 91.4057 134.948C90.5591 135.3 89.6259 135.477 88.6034 135.477Z"
          fill="#DADADA"/>
    <path d="M107.138 134.62C107.018 134.739 106.885 134.846 106.739 134.938C106.62 135.018 106.48 135.087 106.321 135.146C106.161 135.206 106.002 135.237 105.842 135.237C105.364 135.237 104.952 135.074 104.607 134.749C104.261 134.424 103.942 134.048 103.65 133.622C103.491 133.385 103.317 133.124 103.132 132.846C102.946 132.567 102.766 132.301 102.594 132.049C102.421 131.795 102.265 131.563 102.125 131.349C101.986 131.138 101.876 130.978 101.797 130.871C101.583 131.044 101.388 131.207 101.208 131.359C101.029 131.512 100.873 131.641 100.74 131.746V133.341C100.74 133.74 100.743 134.065 100.75 134.319C100.756 134.571 100.766 134.77 100.78 134.915C100.793 135.075 100.806 135.194 100.82 135.274C99.9961 135.274 99.3687 135.101 98.9372 134.755C98.5048 134.411 98.2891 133.844 98.2891 133.062L98.3488 123.634C98.3488 122.837 98.5542 122.269 98.9667 121.93C99.3783 121.591 99.9961 121.422 100.82 121.422C100.806 121.502 100.793 121.62 100.78 121.78C100.766 121.926 100.757 122.125 100.75 122.378C100.743 122.63 100.74 122.956 100.74 123.354V128.835C100.939 128.688 101.149 128.528 101.368 128.355C101.587 128.184 101.799 128.011 102.005 127.837C102.211 127.664 102.41 127.505 102.603 127.358C102.796 127.212 102.959 127.086 103.091 126.979C103.622 126.554 104.064 126.278 104.416 126.153C104.768 126.026 105.077 125.951 105.342 125.922C105.661 125.897 105.917 125.922 106.11 126.002C106.302 126.084 106.452 126.176 106.559 126.281C106.692 126.414 106.784 126.56 106.838 126.72C106.731 126.799 106.568 126.929 106.35 127.108C106.132 127.287 105.875 127.497 105.583 127.736C105.291 127.975 104.972 128.238 104.627 128.524C104.281 128.809 103.929 129.098 103.57 129.39L105.783 132.639L107.138 134.62Z"
          fill="#DADADA"/>
    <path d="M114.889 133.484C114.916 133.83 114.889 134.143 114.81 134.421C114.743 134.66 114.61 134.889 114.411 135.109C114.212 135.329 113.9 135.452 113.474 135.478C113.062 135.519 112.703 135.474 112.398 135.349C112.093 135.222 111.837 135.046 111.631 134.822C111.425 134.596 111.273 134.331 111.173 134.024C111.073 133.718 111.024 133.399 111.024 133.067V123.36C111.011 122.961 111.001 122.639 110.995 122.394C110.988 122.148 110.977 121.952 110.964 121.805C110.95 121.645 110.937 121.519 110.924 121.426C111.747 121.426 112.379 121.599 112.818 121.946C113.256 122.29 113.475 122.856 113.475 123.64V132.827C113.475 133.146 113.535 133.376 113.655 133.515C113.774 133.655 113.914 133.739 114.073 133.764C114.233 133.791 114.392 133.774 114.551 133.713C114.71 133.654 114.824 133.577 114.889 133.484Z"
          fill="#DADADA"/>
    <path d="M126.509 133.344C126.668 133.436 126.82 133.597 126.967 133.824L127.027 133.882L126.967 133.941C126.528 134.42 126.007 134.794 125.403 135.068C124.798 135.339 124.144 135.477 123.439 135.477C122.828 135.477 122.253 135.353 121.715 135.108C121.177 134.862 120.702 134.519 120.29 134.081C119.891 133.656 119.576 133.155 119.343 132.577C119.11 131.999 118.995 131.377 118.995 130.715C118.995 130.05 119.098 129.429 119.304 128.851C119.509 128.273 119.805 127.765 120.19 127.326C120.575 126.901 121.044 126.561 121.595 126.309C122.147 126.057 122.761 125.93 123.439 125.93C123.81 125.93 124.218 125.986 124.665 126.099C125.109 126.212 125.525 126.392 125.911 126.637C126.295 126.882 126.615 127.203 126.867 127.603C127.119 128.002 127.246 128.481 127.246 129.037C127.246 129.582 127.106 130.025 126.827 130.362C126.548 130.702 126.216 130.967 125.831 131.16C125.445 131.352 125.037 131.485 124.605 131.558C124.173 131.631 123.798 131.668 123.479 131.668C122.988 131.668 122.558 131.638 122.194 131.578C121.829 131.518 121.58 131.475 121.446 131.448C121.5 131.927 121.606 132.316 121.765 132.615C121.925 132.914 122.104 133.149 122.303 133.322C122.503 133.494 122.702 133.61 122.901 133.669C123.101 133.729 123.28 133.759 123.439 133.759C123.718 133.759 123.984 133.733 124.237 133.68C124.489 133.626 124.715 133.567 124.914 133.5C125.113 133.434 125.302 133.368 125.482 133.302C125.661 133.236 125.837 133.202 126.009 133.202C126.197 133.203 126.362 133.251 126.509 133.344ZM123.439 127.624C123.293 127.638 123.121 127.675 122.921 127.734C122.723 127.793 122.525 127.903 122.334 128.062C122.141 128.223 121.965 128.448 121.805 128.74C121.646 129.032 121.533 129.404 121.466 129.856C121.679 129.923 121.981 129.984 122.373 130.046C122.764 130.104 123.156 130.115 123.549 130.075C123.94 130.035 124.286 129.923 124.585 129.735C124.884 129.549 125.047 129.238 125.073 128.8C125.1 128.466 124.97 128.18 124.685 127.943C124.399 127.703 123.984 127.598 123.439 127.624Z"
          fill="#DADADA"/>
    <path d="M131.072 130.712C131.072 130.047 131.188 129.427 131.421 128.849C131.654 128.271 131.969 127.77 132.368 127.345C132.766 126.906 133.234 126.561 133.773 126.309C134.312 126.057 134.89 125.93 135.51 125.93C136.185 125.93 136.8 126.056 137.351 126.309C137.903 126.561 138.371 126.906 138.756 127.345C139.14 127.77 139.44 128.271 139.653 128.849C139.865 129.427 139.971 130.049 139.971 130.712C139.971 131.377 139.854 131.997 139.623 132.575C139.392 133.153 139.067 133.655 138.657 134.079C138.258 134.518 137.79 134.862 137.252 135.115C136.714 135.367 136.133 135.494 135.51 135.494C134.757 135.494 134.087 135.341 133.504 135.036L133.524 138.065C133.524 138.464 133.526 138.789 133.534 139.042C133.54 139.294 133.55 139.493 133.563 139.639C133.576 139.799 133.59 139.918 133.603 139.998C132.779 139.998 132.152 139.826 131.72 139.479C131.288 139.134 131.072 138.562 131.072 137.764V130.712ZM135.51 133.782C135.681 133.782 135.885 133.741 136.114 133.661C136.348 133.581 136.569 133.431 136.783 133.212C136.996 132.993 137.174 132.681 137.321 132.275C137.467 131.87 137.54 131.349 137.54 130.711C137.54 130.073 137.467 129.555 137.321 129.156C137.174 128.756 136.995 128.449 136.783 128.229C136.571 128.01 136.348 127.861 136.114 127.78C135.882 127.7 135.681 127.66 135.51 127.66C135.339 127.66 135.136 127.7 134.907 127.78C134.674 127.861 134.453 128.01 134.241 128.229C134.029 128.449 133.849 128.756 133.703 129.156C133.557 129.555 133.484 130.073 133.484 130.711C133.484 131.347 133.557 131.87 133.703 132.275C133.849 132.681 134.028 132.993 134.241 133.212C134.452 133.431 134.674 133.581 134.907 133.661C135.136 133.742 135.339 133.782 135.51 133.782Z"
          fill="#DADADA"/>
    <path d="M177.004 130.258C177.004 129.698 176.949 129.252 176.836 128.911C176.724 128.573 176.573 128.308 176.387 128.114C176.2 127.922 175.995 127.793 175.769 127.727C175.543 127.66 175.317 127.627 175.091 127.627C174.865 127.627 174.642 127.66 174.423 127.727C174.203 127.793 174.006 127.924 173.826 128.114C173.647 128.308 173.5 128.573 173.388 128.911C173.274 129.252 173.219 129.698 173.219 130.258V133.345C173.219 133.745 173.226 134.07 173.238 134.323C173.251 134.576 173.264 134.775 173.278 134.92C173.292 135.08 173.303 135.199 173.318 135.278C172.493 135.278 171.863 135.106 171.424 134.759C170.986 134.414 170.766 133.849 170.766 133.066L170.785 130.256C170.785 129.697 170.728 129.25 170.616 128.91C170.502 128.571 170.353 128.306 170.167 128.113C169.98 127.92 169.775 127.792 169.548 127.725C169.323 127.658 169.097 127.625 168.871 127.625C168.644 127.625 168.423 127.658 168.203 127.725C167.985 127.792 167.787 127.922 167.607 128.113C167.428 128.306 167.285 128.571 167.178 128.91C167.072 129.25 167.019 129.697 167.019 130.256V133.344C167.019 133.742 167.021 134.069 167.029 134.321C167.035 134.573 167.047 134.772 167.058 134.918C167.072 135.077 167.085 135.197 167.099 135.277C166.275 135.277 165.643 135.104 165.204 134.758C164.765 134.414 164.546 133.848 164.546 133.064L164.566 130.254C164.566 129.364 164.694 128.638 164.953 128.072C165.212 127.508 165.549 127.065 165.96 126.747C166.372 126.428 166.833 126.212 167.345 126.099C167.858 125.985 168.365 125.93 168.871 125.93C169.43 125.93 169.98 125.996 170.525 126.129C171.07 126.261 171.554 126.513 171.98 126.885C172.405 126.513 172.89 126.261 173.435 126.129C173.98 125.996 174.531 125.93 175.089 125.93C175.594 125.93 176.105 125.985 176.623 126.099C177.142 126.212 177.611 126.428 178.028 126.747C178.446 127.065 178.786 127.508 179.045 128.072C179.305 128.636 179.434 129.363 179.434 130.254V133.342C179.434 133.741 179.436 134.066 179.443 134.32C179.451 134.572 179.461 134.771 179.473 134.916C179.487 135.076 179.499 135.195 179.514 135.275C178.69 135.275 178.062 135.102 177.63 134.756C177.199 134.411 176.982 133.845 176.982 133.062L177.004 130.258Z"
          fill="#DADADA"/>
    <path d="M191.314 133.344C191.473 133.436 191.624 133.597 191.771 133.824L191.83 133.882L191.771 133.941C191.332 134.42 190.812 134.794 190.206 135.068C189.602 135.339 188.947 135.477 188.243 135.477C187.631 135.477 187.057 135.353 186.519 135.108C185.981 134.862 185.506 134.519 185.092 134.081C184.694 133.656 184.379 133.155 184.146 132.577C183.913 131.999 183.798 131.377 183.798 130.715C183.798 130.05 183.9 129.429 184.106 128.851C184.312 128.273 184.607 127.765 184.993 127.326C185.377 126.901 185.845 126.561 186.396 126.309C186.948 126.057 187.564 125.93 188.241 125.93C188.613 125.93 189.02 125.986 189.466 126.099C189.912 126.212 190.326 126.392 190.713 126.637C191.097 126.882 191.417 127.203 191.669 127.603C191.921 128.002 192.049 128.481 192.049 129.037C192.049 129.582 191.909 130.025 191.631 130.362C191.353 130.702 191.02 130.967 190.635 131.16C190.25 131.352 189.842 131.485 189.409 131.558C188.978 131.631 188.602 131.668 188.284 131.668C187.792 131.668 187.363 131.638 186.999 131.578C186.633 131.518 186.383 131.475 186.251 131.448C186.306 131.927 186.412 132.316 186.57 132.615C186.731 132.914 186.91 133.149 187.108 133.322C187.307 133.494 187.506 133.61 187.706 133.669C187.904 133.729 188.084 133.759 188.244 133.759C188.521 133.759 188.788 133.733 189.041 133.68C189.293 133.626 189.519 133.567 189.718 133.5C189.916 133.434 190.106 133.368 190.285 133.302C190.465 133.236 190.641 133.202 190.813 133.202C191.002 133.203 191.167 133.251 191.314 133.344ZM188.245 127.624C188.097 127.638 187.926 127.675 187.725 127.734C187.526 127.793 187.33 127.903 187.137 128.062C186.944 128.223 186.768 128.448 186.609 128.74C186.449 129.032 186.338 129.404 186.27 129.856C186.482 129.923 186.785 129.984 187.177 130.046C187.569 130.104 187.961 130.115 188.352 130.075C188.743 130.035 189.09 129.923 189.388 129.735C189.687 129.549 189.849 129.238 189.876 128.8C189.901 128.466 189.772 128.18 189.487 127.943C189.205 127.703 188.789 127.598 188.245 127.624Z"
          fill="#DADADA"/>
    <path d="M205.165 130.715C205.165 131.367 205.058 131.981 204.846 132.558C204.635 133.137 204.334 133.646 203.949 134.084C203.565 134.51 203.097 134.848 202.546 135.1C201.993 135.353 201.378 135.48 200.702 135.48C200.091 135.48 199.516 135.354 198.978 135.1C198.44 134.847 197.964 134.51 197.552 134.084C197.153 133.659 196.839 133.158 196.605 132.58C196.372 132.002 196.257 131.381 196.257 130.718C196.257 130.053 196.36 129.432 196.565 128.854C196.77 128.276 197.067 127.768 197.451 127.33C197.835 126.904 198.304 126.565 198.856 126.312C199.408 126.061 200.022 125.933 200.7 125.933C201.442 125.933 202.122 126.105 202.733 126.451L202.714 123.643C202.714 122.845 202.933 122.277 203.372 121.937C203.811 121.599 204.441 121.43 205.266 121.43C205.252 121.509 205.239 121.628 205.226 121.788C205.212 121.934 205.203 122.133 205.196 122.385C205.189 122.638 205.186 122.963 205.186 123.362L205.165 130.715ZM200.699 133.765C200.871 133.765 201.076 133.725 201.307 133.646C201.54 133.565 201.761 133.416 201.975 133.196C202.189 132.977 202.367 132.665 202.513 132.26C202.66 131.854 202.733 131.334 202.733 130.694C202.733 130.057 202.66 129.535 202.513 129.129C202.367 128.724 202.188 128.412 201.975 128.193C201.763 127.974 201.54 127.824 201.307 127.743C201.074 127.663 200.871 127.623 200.699 127.623C200.527 127.623 200.323 127.663 200.092 127.743C199.859 127.824 199.638 127.974 199.424 128.193C199.211 128.412 199.033 128.724 198.886 129.129C198.74 129.535 198.667 130.056 198.667 130.694C198.667 131.333 198.74 131.854 198.886 132.26C199.033 132.665 199.211 132.977 199.424 133.196C199.637 133.416 199.859 133.565 200.092 133.646C200.325 133.725 200.527 133.765 200.699 133.765Z"
          fill="#DADADA"/>
    <path d="M215.528 127.186C215.701 126.761 215.946 126.472 216.267 126.318C216.585 126.165 216.898 126.076 217.203 126.048C217.561 126.023 217.941 126.056 218.34 126.147C217.491 128.193 216.726 130.029 216.047 131.65C215.755 132.34 215.466 133.024 215.181 133.701C214.895 134.378 214.639 134.99 214.412 135.534C214.186 136.079 213.997 136.531 213.846 136.889C213.691 137.247 213.603 137.453 213.575 137.507C213.389 137.931 213.144 138.225 212.838 138.384C212.531 138.544 212.226 138.636 211.919 138.663C211.561 138.703 211.182 138.663 210.783 138.544C210.943 138.17 211.115 137.766 211.301 137.328C211.463 136.942 211.645 136.5 211.85 136.003C212.055 135.505 212.278 134.976 212.518 134.418C212.478 134.327 212.394 134.133 212.268 133.84C212.142 133.548 211.997 133.196 211.83 132.784C211.665 132.372 211.478 131.924 211.271 131.438C211.066 130.952 210.862 130.465 210.663 129.974C210.185 128.818 209.646 127.543 209.05 126.147C209.449 126.056 209.827 126.021 210.186 126.048C210.493 126.075 210.801 126.165 211.113 126.318C211.424 126.472 211.673 126.761 211.86 127.186C211.885 127.252 211.955 127.42 212.069 127.693C212.181 127.965 212.32 128.309 212.486 128.721C212.652 129.133 212.841 129.587 213.054 130.086C213.267 130.584 213.478 131.085 213.69 131.59C213.93 131.03 214.156 130.501 214.368 129.996C214.58 129.49 214.77 129.039 214.936 128.64C215.102 128.242 215.235 127.913 215.334 127.653C215.438 127.394 215.501 127.24 215.528 127.186Z"
          fill="#DADADA"/>
    <path d="M226.368 127.627C226.197 127.627 225.993 127.667 225.762 127.748C225.528 127.827 225.307 127.977 225.094 128.196C224.881 128.416 224.702 128.728 224.556 129.133C224.409 129.539 224.336 130.059 224.336 130.698C224.336 131.337 224.409 131.857 224.556 132.264C224.702 132.668 224.881 132.98 225.094 133.2C225.306 133.42 225.529 133.569 225.762 133.649C225.995 133.729 226.197 133.769 226.368 133.769C226.647 133.769 226.914 133.744 227.166 133.689C227.419 133.635 227.646 133.577 227.843 133.51C228.042 133.43 228.232 133.36 228.411 133.301C228.59 133.241 228.766 133.211 228.939 133.211C229.111 133.211 229.283 133.259 229.457 133.35C229.604 133.442 229.756 133.596 229.916 133.808L229.956 133.888L229.896 133.947C229.457 134.426 228.938 134.801 228.331 135.074C227.727 135.345 227.079 135.484 226.388 135.484C225.764 135.484 225.182 135.357 224.644 135.104C224.106 134.851 223.631 134.513 223.218 134.088C222.819 133.663 222.504 133.162 222.271 132.584C222.038 132.006 221.922 131.384 221.922 130.721C221.922 130.057 222.029 129.436 222.241 128.858C222.454 128.28 222.752 127.772 223.138 127.333C223.523 126.908 223.988 126.569 224.533 126.317C225.077 126.065 225.689 125.938 226.365 125.938C227.069 125.938 227.724 126.074 228.329 126.346C228.935 126.619 229.456 126.995 229.894 127.474L229.954 127.532L229.894 127.612C229.748 127.851 229.595 128.005 229.436 128.07C229.264 128.177 229.097 128.223 228.939 128.209C228.766 128.209 228.59 128.18 228.411 128.119C228.232 128.06 228.042 127.995 227.843 127.929C227.645 127.849 227.419 127.78 227.166 127.72C226.913 127.657 226.648 127.627 226.368 127.627Z"
          fill="#DADADA"/>
    <path d="M240.81 133.814C241.149 134.165 241.317 134.639 241.317 135.239L233.943 135.257C233.863 134.9 233.844 134.527 233.885 134.142C233.91 133.81 234.004 133.444 234.163 133.045C234.323 132.646 234.602 132.241 235 131.83C235.12 131.71 235.289 131.537 235.508 131.311C235.728 131.085 235.969 130.843 236.236 130.584C236.502 130.324 236.771 130.06 237.044 129.786C237.316 129.515 237.571 129.264 237.811 129.039C238.05 128.813 238.261 128.622 238.441 128.461C238.62 128.302 238.736 128.209 238.788 128.183H235.858C235.247 128.183 234.775 128.004 234.443 127.646C234.111 127.287 233.945 126.807 233.945 126.211H241.32C241.425 126.584 241.459 126.961 241.419 127.348C241.393 127.68 241.295 128.046 241.129 128.445C240.965 128.843 240.675 129.235 240.263 129.619C240.156 129.712 239.993 129.868 239.775 130.088C239.555 130.308 239.31 130.549 239.036 130.816C238.765 131.082 238.484 131.361 238.199 131.653C237.913 131.945 237.654 132.211 237.422 132.451C237.188 132.688 236.922 132.969 236.615 133.288H239.384C239.994 133.284 240.47 133.46 240.81 133.814Z"
          fill="#DADADA"/>
    <path d="M245.541 130.254C245.541 129.364 245.67 128.638 245.929 128.072C246.189 127.508 246.521 127.065 246.925 126.747C247.329 126.428 247.788 126.212 248.301 126.099C248.812 125.986 249.327 125.93 249.845 125.93C250.349 125.93 250.861 125.986 251.379 126.099C251.899 126.212 252.367 126.428 252.785 126.747C253.202 127.065 253.542 127.508 253.801 128.072C254.06 128.636 254.189 129.363 254.189 130.254L254.269 135.277C253.459 135.277 252.836 135.104 252.396 134.758C251.957 134.413 251.738 133.848 251.738 133.064L251.758 130.254C251.758 129.695 251.702 129.248 251.589 128.908C251.475 128.569 251.325 128.305 251.14 128.111C250.954 127.918 250.748 127.789 250.522 127.723C250.294 127.657 250.071 127.624 249.845 127.624C249.618 127.624 249.395 127.657 249.177 127.723C248.957 127.789 248.759 127.92 248.58 128.111C248.4 128.305 248.254 128.569 248.14 128.908C248.028 129.248 247.972 129.695 247.972 130.254V133.342C247.985 133.741 247.995 134.066 248.002 134.32C248.009 134.572 248.019 134.771 248.032 134.916C248.045 135.076 248.057 135.195 248.071 135.275C247.248 135.275 246.615 135.102 246.177 134.756C245.738 134.411 245.519 133.845 245.519 133.063L245.541 130.254Z"
          fill="#DADADA"/>
    <path d="M264.057 127.186C264.23 126.761 264.476 126.472 264.795 126.318C265.115 126.165 265.427 126.076 265.732 126.048C266.091 126.023 266.47 126.056 266.869 126.147C266.02 128.193 265.256 130.029 264.576 131.65C264.284 132.34 263.995 133.024 263.71 133.701C263.424 134.378 263.168 134.99 262.941 135.534C262.715 136.079 262.526 136.531 262.374 136.889C262.22 137.247 262.132 137.453 262.104 137.507C261.918 137.931 261.672 138.225 261.366 138.384C261.059 138.544 260.755 138.636 260.449 138.663C260.09 138.703 259.711 138.663 259.312 138.544C259.472 138.17 259.644 137.766 259.83 137.328C259.991 136.942 260.174 136.5 260.38 136.003C260.584 135.505 260.807 134.976 261.048 134.418C261.007 134.327 260.924 134.133 260.798 133.84C260.672 133.548 260.527 133.196 260.36 132.784C260.194 132.372 260.008 131.924 259.801 131.438C259.596 130.952 259.392 130.465 259.194 129.974C258.714 128.818 258.176 127.543 257.58 126.147C257.979 126.056 258.356 126.021 258.717 126.048C259.023 126.075 259.331 126.165 259.642 126.318C259.954 126.472 260.203 126.761 260.389 127.186C260.415 127.252 260.485 127.42 260.599 127.693C260.712 127.965 260.85 128.309 261.016 128.721C261.181 129.133 261.371 129.587 261.583 130.086C261.796 130.584 262.009 131.085 262.22 131.59C262.459 131.03 262.686 130.501 262.898 129.996C263.11 129.49 263.3 129.039 263.465 128.64C263.631 128.242 263.764 127.913 263.864 127.653C263.967 127.394 264.029 127.24 264.057 127.186Z"
          fill="#DADADA"/>
</svg>
