<svg width="398" height="140" viewBox="0 0 398 140" fill="none" xmlns="http://www.w3.org/2000/svg">
    <path d="M354.802 71.1521C348.772 64.2252 339.934 63.1914 335.201 63.1914C333.206 63.1914 331.952 63.3723 331.899 63.3806C331.813 63.3929 331.736 63.4402 331.686 63.5122C331.636 63.5839 331.619 63.6746 331.637 63.7588C333.564 72.6239 338.399 74.8826 338.604 74.9751C338.646 74.9937 338.689 75.0019 338.733 75.0019C338.737 75.0019 338.739 75.0019 338.742 75.0019C338.937 75.0247 339.067 74.8643 339.065 74.6874C339.065 74.632 339.051 74.5826 339.027 74.5373C338.197 69.8778 338.574 68.0545 338.729 67.5633C346.082 67.362 354.338 71.5982 354.418 71.6393C354.552 71.7092 354.718 71.6719 354.812 71.5548C354.906 71.4355 354.902 71.2669 354.802 71.1521Z"
          fill="#DADADA"/>
    <path d="M17.7798 60.398C12.8621 55.5549 8.64611 54.7482 4.9267 54.0361C3.7166 53.8049 2.5733 53.586 1.45011 53.2437C1.30625 53.2006 1.14943 53.2654 1.07861 53.3987C1.00825 53.5334 1.04309 53.6979 1.16194 53.7924C1.18517 53.8109 3.50863 55.6874 3.58592 58.2784C3.63261 59.8556 2.8398 61.3867 1.22873 62.8318C1.12508 62.9243 1.09403 63.0741 1.15389 63.2017C1.20684 63.3125 1.31875 63.3826 1.43961 63.3826C1.45502 63.3826 1.47088 63.3804 1.48674 63.3784L17.6058 60.9365C17.7239 60.918 17.822 60.8338 17.8584 60.7205C17.8955 60.6077 17.8651 60.4822 17.7798 60.398Z"
          fill="#DADADA"/>
    <path d="M228.133 28.309C225.948 25.9165 225.421 21.711 224.82 13.9727C224.634 17.0753 224.448 19.6065 224.156 21.6887C224.844 25.0985 225.947 27.088 228.133 28.309Z"
          fill="#DADADA"/>
    <path d="M118.508 56.6891C117.405 55.8659 103.232 46.1604 49.4457 46.5776C56.4168 43.0012 94.8978 24.7698 154.496 24.7698C164.779 24.7698 175.295 25.3144 185.745 26.3874C194.984 27.5383 203.734 29.2689 212.464 31.6613C210.854 31.8474 209.034 32.0067 206.941 32.1691C213.536 32.5679 217.56 32.9543 220.112 34.3806C218.859 33.0055 217.051 32.2288 214.369 31.7272C218.281 31.1373 220.454 30.2516 221.905 28.6657C221.978 28.5855 222.005 28.4736 221.976 28.3686C221.947 28.2636 221.867 28.1816 221.764 28.1508C203.546 22.63 183.947 19.5879 160.093 18.5786C160.068 18.5766 157.489 18.3711 152.755 18.3711C135.999 18.3711 90.5152 20.9477 30.2245 44.8077C30.0838 44.8549 15.9858 49.5742 4.22014 49.5753C2.85211 49.5753 1.54954 49.5105 0.348601 49.3843C0.240258 49.378 0.133479 49.4182 0.0660153 49.5045C-0.000777741 49.5907 -0.0182022 49.706 0.0197738 49.8087C0.895902 52.1498 3.33619 52.7027 6.4261 53.4026C10.2096 54.2597 14.918 55.3264 18.9948 60.1141C19.0553 60.186 19.1434 60.2251 19.2354 60.2251C19.2466 60.2251 19.258 60.2251 19.2694 60.2229C19.591 60.19 51.8813 56.7447 92.2208 56.5946C92.3282 56.5946 92.4278 56.5401 92.4855 56.4498C92.5435 56.3594 92.5518 56.2463 92.5071 56.1487C92.334 55.7663 89.7903 52.4161 54.3665 52.4161C50.3712 52.4161 46.0746 52.4603 41.5157 52.5466C48.4485 52.0933 57.9148 51.6421 68.1598 51.6421C89.6214 51.6421 106.482 53.5393 118.273 57.2811C118.308 57.2925 118.344 57.2953 118.377 57.2953C118.561 57.3016 118.7 57.1577 118.7 56.9799C118.7 56.8495 118.621 56.7373 118.508 56.6891Z"
          fill="#DADADA"/>
    <path d="M356.381 66.672C355.924 66.0246 344.551 50.7924 290.516 49.2468C290.512 49.2477 290.191 49.287 289.519 49.287C286.496 49.287 277.462 48.5418 258.945 41.6398C254.321 40.0437 249.899 38.3265 245.217 36.5094C242.175 35.3286 239.041 34.1118 235.789 32.9073L235.27 32.6678C237.355 32.337 239.894 32.1047 243.018 31.8632C239.706 31.6628 237.048 31.4633 234.888 31.1367C227.271 32.1223 225.073 33.9876 224.09 41.0058C224.557 43.3089 224.833 46.2543 225.129 50.0619C225.549 43.1197 225.959 39.0172 227.581 36.4891L227.887 36.5898C233.93 38.7851 239.271 41.0049 244.438 43.1519C253.528 46.9287 261.579 50.2748 269.58 51.6726C257.699 51.7979 247.422 51.9129 238.385 52.0148C214.723 52.2808 199.091 52.4567 185.727 52.4578C167.197 52.4578 152.308 52.1187 125.942 51.36C125.896 51.3612 125.852 51.3683 125.81 51.3848L125.568 51.4876C125.435 51.543 125.357 51.6828 125.379 51.8258C125.4 51.9685 125.516 52.0785 125.659 52.0919C156.954 55.1903 186.451 56.6333 218.491 56.6333C232.722 56.6333 245.846 56.3516 257.425 56.1021C267.36 55.8895 276.743 55.6868 285.45 55.6868C312.853 55.6868 334.213 57.6037 355.997 67.1433C356.038 67.1618 356.08 67.1699 356.123 67.1699C356.216 67.1699 356.306 67.1288 356.368 67.0548C356.457 66.9434 356.462 66.7872 356.381 66.672Z"
          fill="#DADADA"/>
    <path d="M227.976 9.92133C219.087 10.6129 218.591 11.1156 218.055 20.0176C217.367 11.1258 216.866 10.6326 207.97 10.094C216.856 9.40352 217.348 8.9009 217.883 0C218.573 8.89062 219.076 9.38497 227.976 9.92133Z"
          fill="#DADADA"/>
    <path d="M240.766 17.9573C235.86 18.3386 235.587 18.616 235.29 23.5283C234.909 18.621 234.632 18.3487 229.719 18.0527C234.626 17.6705 234.9 17.3928 235.196 12.4805C235.577 17.3879 235.855 17.6602 240.766 17.9573Z"
          fill="#DADADA"/>
    <path d="M60.2307 72.2998C54.5383 68.0369 47.8581 65.9609 39.8061 65.9609C31.7556 65.9609 25.075 68.0369 19.3842 72.2998C13.6927 76.5687 10.9263 81.5798 10.9263 87.6164C10.9263 93.6572 13.6923 98.6685 19.3837 102.935C25.0737 107.204 31.7547 109.28 39.8063 109.28C47.8595 109.28 54.5394 107.204 60.2309 102.935C65.9213 98.6683 68.6879 93.6572 68.6879 87.6164C68.6877 81.5798 65.9211 76.5687 60.2307 72.2998ZM53.1124 97.5956C49.4511 100.346 44.974 101.739 39.8063 101.739C34.6396 101.739 30.1618 100.346 26.5007 97.5956C22.838 94.8495 20.9799 91.4931 20.9799 87.6164C20.9799 83.7442 22.8378 80.3855 26.5016 77.6396C30.1638 74.8915 34.6405 73.498 39.8063 73.498C44.9731 73.498 49.4498 74.8915 53.1124 77.6396C56.7756 80.3878 58.6332 83.7442 58.6332 87.6164C58.6332 91.4928 56.7756 94.8495 53.1124 97.5956Z"
          fill="#DADADA"/>
    <path d="M191.001 65.9592L172.438 79.8823L169.245 82.2788L166.053 79.8823L147.482 65.9592H144.581H122.349H119.448L100.877 79.8823L97.6853 82.2788L94.4929 79.8823L68.8034 60.6211V71.2928L87.3755 85.2222L90.567 87.6146L87.3755 90.0093L61.6865 109.279H75.9201L94.4929 95.3492L97.6853 92.9525L100.877 95.3492L126.564 114.617V103.939L107.994 90.0093L104.803 87.6146L107.994 85.2222L130.272 68.5181L133.465 66.1234L136.656 68.5159L162.895 88.1923L164.218 89.1851V90.5868V109.279H174.274V90.5868V89.1851L175.593 88.1923L205.234 65.9592H191.001Z"
          fill="#DADADA"/>
    <path d="M206.464 102.936C212.155 107.205 218.835 109.281 226.886 109.281H250.998V83.849H231.4V91.3883H236.43H240.943V94.7755V98.354V101.739H236.43H226.886C221.719 101.739 217.242 100.346 213.582 97.5956C209.918 94.8495 208.061 91.4931 208.061 87.6164C208.061 83.742 209.918 80.3856 213.583 77.6397C217.242 74.8916 221.719 73.498 226.886 73.498H250.998V65.9609H226.886C218.835 65.9609 212.155 68.0369 206.464 72.2998C200.773 76.5688 198.006 81.5798 198.006 87.6164C198.006 93.6575 200.773 98.6688 206.464 102.936Z"
          fill="#DADADA"/>
    <path d="M266.723 76.8833V73.498H271.237H304.89V65.9609H256.667V109.28H304.89V101.739H271.237H266.723V98.3538V94.7755V91.3883H271.237H295.347V83.8489H271.237H266.723V80.4617V76.8833Z"
          fill="#DADADA"/>
    <path d="M368.668 114.617V65.9592H358.613V88.2252V96.3996L350.907 90.6176L310.905 60.6211V109.279H320.96V87.0084V78.8339L328.665 84.6136L368.668 114.617Z"
          fill="#DADADA"/>
    <path d="M372.398 62.1918H376.716V72.5204H378.451V62.1918H382.788V60.8086H372.398V62.1918Z" fill="#DADADA"/>
    <path d="M394.687 60.8086L391.548 68.9582C391.231 69.7805 390.999 70.4073 390.851 70.8329C390.72 70.4505 390.512 69.871 390.226 69.1023L387.123 60.8086H384.512V72.5204H386.183V62.5497L389.973 72.5204H391.54L395.348 62.7181V72.5204H397.019V60.8086H394.687Z"
          fill="#DADADA"/>
    <path d="M148.056 122.988L142.495 139.69H141.565L137.198 124.589L132.81 139.69H131.902L126.321 122.988H127.253L132.332 138.206L136.723 122.988H137.654L142.067 138.206L147.147 122.988H148.056Z"
          fill="#DADADA"/>
    <path d="M159.906 138.853V139.69H150.912V122.988H159.692V123.849H151.749V130.622H159.144V131.482H151.749V138.853H159.906Z"
          fill="#DADADA"/>
    <path d="M182.711 131.339C182.711 136.108 179.252 139.69 174.481 139.69H169.684V122.988H174.481C179.252 122.988 182.711 126.567 182.711 131.339ZM181.852 131.339C181.852 127.165 178.799 123.849 174.481 123.849H170.543V138.853H174.481C178.799 138.853 181.852 135.513 181.852 131.339Z"
          fill="#DADADA"/>
    <path d="M201.558 131.339C201.558 136.157 198.027 139.999 193.327 139.999C188.624 139.999 185.093 136.157 185.093 131.339C185.093 126.517 188.624 122.699 193.327 122.699C198.027 122.699 201.558 126.517 201.558 131.339ZM200.699 131.339C200.699 126.996 197.55 123.536 193.327 123.536C189.102 123.536 185.954 126.995 185.954 131.339C185.954 135.682 189.102 139.136 193.327 139.136C197.55 139.136 200.699 135.682 200.699 131.339Z"
          fill="#DADADA"/>
    <path d="M211.932 122.988V139.69H211.098V122.988H211.932Z" fill="#DADADA"/>
    <path d="M225.503 123.849H220.923V139.69H220.09V123.849H215.507V122.988H225.503V123.849Z" fill="#DADADA"/>
    <path d="M241.292 133.678V139.69H240.437V133.678L233.85 122.988H234.925L240.866 132.813L246.808 122.988H247.855L241.292 133.678Z"
          fill="#DADADA"/>
    <path d="M265.27 131.339C265.27 136.157 261.736 139.999 257.037 139.999C252.337 139.999 248.808 136.157 248.808 131.339C248.808 126.517 252.337 122.699 257.037 122.699C261.736 122.699 265.27 126.517 265.27 131.339ZM264.409 131.339C264.409 126.996 261.26 123.536 257.037 123.536C252.816 123.536 249.666 126.995 249.666 131.339C249.666 135.682 252.816 139.136 257.037 139.136C261.26 139.136 264.409 135.682 264.409 131.339Z"
          fill="#DADADA"/>
    <path d="M280.438 122.988V133.678C280.438 137.564 278.03 139.999 274.521 139.999C270.991 139.999 268.607 137.564 268.607 133.678V122.988H269.466V133.678C269.466 136.992 271.419 139.137 274.521 139.137C277.627 139.137 279.582 136.992 279.582 133.678V122.988H280.438Z"
          fill="#DADADA"/>
    <path d="M299.759 138.853V139.69H290.932V122.988H291.789V138.853H299.759Z" fill="#DADADA"/>
    <path d="M318.128 131.339C318.128 136.157 314.596 139.999 309.894 139.999C305.198 139.999 301.668 136.157 301.668 131.339C301.668 126.517 305.198 122.699 309.894 122.699C314.596 122.699 318.128 126.517 318.128 131.339ZM317.269 131.339C317.269 126.996 314.117 123.536 309.894 123.536C305.673 123.536 302.526 126.995 302.526 131.339C302.526 135.682 305.673 139.136 309.894 139.136C314.117 139.136 317.269 135.682 317.269 131.339Z"
          fill="#DADADA"/>
    <path d="M332.939 122.988L326.713 139.69H325.782L319.556 122.988H320.483L326.258 138.45L332.008 122.988H332.939Z"
          fill="#DADADA"/>
    <path d="M344.793 138.853V139.69H335.8V122.988H344.58V123.849H336.635V130.622H344.03V131.482H336.635V138.853H344.793Z"
          fill="#DADADA"/>
    <path d="M355.405 122.988V139.69H354.568V122.988H355.405Z" fill="#DADADA"/>
    <path d="M368.979 123.849H364.396V139.69H363.562V123.849H358.98V122.988H368.979V123.849Z" fill="#DADADA"/>
</svg>
