<svg width="39" height="39" viewBox="0 0 39 39" fill="none" xmlns="http://www.w3.org/2000/svg">
    <path d="M19.024 38.05C8.5336 38.05 0 29.5154 0 19.026C0 8.53358 8.53461 0 19.024 0C29.5164 0 38.05 8.5346 38.05 19.026C38.051 29.5154 29.5164 38.05 19.024 38.05ZM19.024 2.02572C9.65236 2.02572 2.02674 9.65133 2.02674 19.025C2.02674 28.3966 9.65236 36.0223 19.024 36.0223C28.3977 36.0223 36.0233 28.3966 36.0233 19.025C36.0243 9.65133 28.3977 2.02572 19.024 2.02572Z"
          fill="url(#paint0_linear)"/>
    <path d="M27.1247 23.7106C27.1592 23.9741 27.0791 24.2021 26.8846 24.3967L24.6025 26.6616C24.4971 26.7761 24.3663 26.8733 24.1981 26.9534C24.0319 27.0335 23.8678 27.0872 23.7097 27.1074C23.6965 27.1074 23.662 27.1115 23.6043 27.1176C23.5496 27.1226 23.4736 27.1247 23.3814 27.1247C23.1665 27.1247 22.8129 27.0882 22.3254 27.0142C21.841 26.9392 21.2462 26.7568 20.5429 26.4629C19.8376 26.1711 19.0411 25.7343 18.1463 25.1537C17.2535 24.57 16.306 23.7673 15.2977 22.7489C14.4972 21.9595 13.8334 21.2025 13.3075 20.482C12.7815 19.7615 12.3579 19.0957 12.0377 18.4836C11.7174 17.8716 11.4753 17.3152 11.3152 16.8167C11.1551 16.3181 11.0476 15.8894 10.9889 15.5297C10.9331 15.1679 10.9108 14.8872 10.9199 14.6795C10.9331 14.4758 10.9392 14.3633 10.9392 14.339C10.9615 14.1789 11.0112 14.0147 11.0933 13.8485C11.1733 13.6823 11.2726 13.5495 11.3851 13.4462L13.6672 11.162C13.8273 11.004 14.0097 10.9219 14.2164 10.9219C14.3674 10.9219 14.4972 10.9654 14.6117 11.0516C14.7282 11.1367 14.8234 11.2421 14.9055 11.3678L16.7397 14.8527C16.8451 15.0382 16.8715 15.2358 16.8269 15.4516C16.7813 15.6705 16.684 15.854 16.533 16.0029L15.6939 16.844C15.6696 16.8663 15.6483 16.9048 15.6352 16.9565C15.6179 17.0082 15.6068 17.0497 15.6068 17.0842C15.6544 17.3243 15.7557 17.599 15.9159 17.9081C16.0506 18.1847 16.2665 18.5181 16.5502 18.9113C16.838 19.3095 17.2424 19.7615 17.7683 20.2783C18.2831 20.8033 18.7422 21.2126 19.1424 21.5045C19.5407 21.7963 19.8761 22.0112 20.1457 22.149C20.4142 22.2868 20.6199 22.3679 20.7648 22.3993L20.9786 22.4419C21.0009 22.4419 21.0395 22.4328 21.0911 22.4155C21.1408 22.4003 21.1783 22.379 21.2036 22.3578L22.1815 21.3606C22.3872 21.1772 22.6254 21.086 22.9 21.086C23.0956 21.086 23.2506 21.1204 23.3652 21.1873H23.3804L26.694 23.1452C26.9362 23.2931 27.0791 23.4816 27.1247 23.7106Z"
          fill="url(#paint1_linear)"/>
    <defs>
        <linearGradient id="paint0_linear" x1="5.57941" y1="32.4723" x2="32.4731" y2="5.5785"
                        gradientUnits="userSpaceOnUse">
            <stop stop-color="#EBCC70"/>
            <stop offset="0.5" stop-color="#F4EADC"/>
            <stop offset="1" stop-color="#EBCC70"/>
        </linearGradient>
        <linearGradient id="paint1_linear" x1="19.0253" y1="32.5265" x2="19.0253" y2="12.8164"
                        gradientUnits="userSpaceOnUse">
            <stop stop-color="#EBCC70"/>
            <stop offset="0.5" stop-color="#F4EADC"/>
            <stop offset="1" stop-color="#EBCC70"/>
        </linearGradient>
    </defs>
</svg>
