<svg viewBox="0 0 90 91" fill="none" xmlns="http://www.w3.org/2000/svg">
<path d="M21.6347 0.333984C9.68634 0.333984 0 10.0203 0 21.9687C0 33.917 9.68634 43.6033 21.6347 43.6033C33.583 43.6033 43.2693 33.917 43.2693 21.9687C43.2693 10.0203 33.583 0.333984 21.6347 0.333984ZM21.6347 40.1417C11.598 40.1417 3.46167 32.0053 3.46167 21.9687C3.46167 11.932 11.598 3.79565 21.6347 3.79565C31.6713 3.79565 39.8077 11.932 39.8077 21.9687C39.8077 32.0053 31.6713 40.1417 21.6347 40.1417Z" fill="url(#paint0_linear)"/>
<path d="M68.3658 0.333984C56.4174 0.333984 46.7314 10.0203 46.7314 21.9687C46.7314 33.917 56.4178 43.6033 68.3658 43.6033C80.3138 43.6033 90.0005 33.917 90.0005 21.9687C90.0005 10.0203 80.3138 0.333984 68.3658 0.333984ZM68.3658 40.1417C58.3291 40.1417 50.1928 32.0053 50.1928 21.9687C50.1928 11.932 58.3288 3.79565 68.3658 3.79565C78.4028 3.79565 86.5391 11.932 86.5391 21.9687C86.5391 32.0053 78.4028 40.1417 68.3658 40.1417Z" fill="url(#paint1_linear)"/>
<path d="M21.6347 47.0645C9.68634 47.0645 0 56.7508 0 68.6991C0 80.6475 9.68634 90.3338 21.6347 90.3338C33.583 90.3338 43.2693 80.6475 43.2693 68.6991C43.2693 56.7508 33.583 47.0645 21.6347 47.0645ZM21.6347 86.8721C11.598 86.8721 3.46167 78.7361 3.46167 68.6988C3.46167 58.6621 11.598 50.5258 21.6347 50.5258C31.6713 50.5258 39.8077 58.6618 39.8077 68.6988C39.8077 78.7361 31.6713 86.8721 21.6347 86.8721Z" fill="url(#paint2_linear)"/>
<path d="M68.3658 47.0645C56.4174 47.0645 46.7314 56.7508 46.7314 68.6988C46.7314 80.6475 56.4178 90.3335 68.3658 90.3335C80.3138 90.3335 90.0005 80.6475 90.0005 68.6991C90.0005 56.7508 80.3138 47.0645 68.3658 47.0645ZM68.3658 86.8721C58.3291 86.8721 50.1928 78.7361 50.1928 68.6988C50.1928 58.6621 58.3288 50.5258 68.3658 50.5258C78.4028 50.5258 86.5391 58.6618 86.5391 68.6988C86.5388 78.7361 78.4028 86.8721 68.3658 86.8721Z" fill="url(#paint3_linear)"/>
<path d="M21.919 17.2209C18.816 17.1929 16.337 19.6239 16.3193 22.7122C16.302 25.8226 18.727 28.2806 21.8286 28.2969C24.8993 28.3132 27.4083 25.8212 27.408 22.7556C27.408 19.7412 24.9356 17.2482 21.919 17.2209ZM21.908 26.3009C19.9253 26.3229 18.2756 24.6966 18.289 22.7329C18.3026 20.8136 19.9313 19.1946 21.852 19.1916C23.789 19.1889 25.3883 20.7822 25.4003 22.7256C25.4116 24.6869 23.8563 26.2792 21.908 26.3009ZM32.5563 27.8829C32.7426 24.5309 32.7433 21.1532 32.5663 17.8002C32.3763 14.1959 29.9143 12.0689 26.2883 12.0486C24.7903 12.0402 23.2926 12.0342 21.7946 12.0332H21.7433C20.2473 12.0329 18.7513 12.0376 17.2556 12.0516C13.5916 12.0856 11.198 14.4632 11.1163 18.1342C11.0823 19.6709 11.1106 21.2092 11.1113 22.7466C11.112 24.3159 11.0813 25.8862 11.1183 27.4549C11.202 30.9929 13.5446 33.4436 17.0906 33.5499C18.6703 33.5976 20.2516 33.6196 21.8333 33.6196H21.8593C23.441 33.6189 25.0226 33.5959 26.6026 33.5519C30.056 33.4559 32.3643 31.3402 32.5563 27.8829ZM21.838 31.5459V31.5549C20.3656 31.5549 18.8926 31.5802 17.421 31.5496C14.6046 31.4909 13.1003 29.9702 13.0856 27.1712C13.0703 24.2266 13.0673 21.2816 13.0866 18.3369C13.1043 15.6676 14.6393 14.0726 17.3103 14.0289C20.3503 13.9792 23.392 13.9862 26.4323 14.0262C29.0306 14.0606 30.648 15.6186 30.7073 18.2172C30.7763 21.2566 30.7683 24.2989 30.7106 27.3389C30.6623 29.8809 29.0836 31.4442 26.5423 31.5352C24.9763 31.5916 23.4063 31.5459 21.838 31.5459ZM28.861 16.9806C28.9226 17.6956 28.3716 18.2949 27.664 18.3159C26.9653 18.3366 26.3353 17.7496 26.3743 17.0579C26.416 16.3152 26.8493 15.9062 27.609 15.8146C28.312 15.8769 28.7943 16.2142 28.861 16.9806Z" fill="url(#paint4_linear)"/>
<path d="M73.5156 23.0659C73.6426 21.8142 73.7602 20.6512 73.8896 19.3769H70.5779C70.5779 18.6449 70.5916 18.0112 70.5739 17.3785C70.5526 16.5742 70.9279 16.1939 71.7302 16.2059C72.4189 16.2162 73.1082 16.2082 73.7992 16.2082V12.6105C72.8049 12.6105 71.8532 12.6075 70.9019 12.6112C67.7799 12.6239 66.2442 14.1442 66.2086 17.2599C66.2006 17.9489 66.2072 18.6379 66.2072 19.4035H64.2266V23.0275C64.8802 23.0582 65.4752 23.0862 66.2272 23.1219V33.5282H70.5922V23.0659H73.5156Z" fill="url(#paint5_linear)"/>
<path d="M15.5631 64.5668C15.4105 64.6158 15.2335 64.8768 15.2268 65.0458C15.1925 65.8968 15.2111 66.7498 15.2111 67.6864H18.1061C18.1061 68.1108 18.1061 68.4534 18.1061 68.7961C18.1068 71.0051 18.0855 73.2144 18.1145 75.4231C18.1448 77.7368 19.1595 79.1444 21.3335 79.8901C23.7108 80.7061 26.0045 80.2888 28.2358 79.3074C28.4051 79.2328 28.6165 79.0094 28.6225 78.8488C28.6395 78.3974 28.6441 77.9454 28.6448 77.4818V77.2498C28.6441 76.7928 28.6405 76.3234 28.6405 75.8284C27.2398 76.5318 25.9795 77.0848 24.5448 76.6964C23.7238 76.4738 22.9551 76.0471 22.9275 75.1434C22.8525 72.6901 22.9015 70.2331 22.9015 67.6628H27.8108C27.8108 66.6584 27.7641 65.7651 27.8248 64.8788C27.8785 64.0978 27.6458 63.7998 26.8215 63.8424C25.5281 63.9088 24.2288 63.8604 22.8491 63.8604V59.0098H19.8208C19.4558 61.7131 18.2461 63.7061 15.5631 64.5668Z" fill="url(#paint6_linear)"/>
<path d="M79.3174 68.4997C79.3167 65.8884 79.3154 63.277 79.3117 60.6657C79.3097 59.2597 78.7914 58.718 77.4174 58.7157C74.4847 58.71 71.5521 58.707 68.6194 58.707H68.5284C65.5941 58.707 62.6601 58.7104 59.7257 58.7167C58.3937 58.7197 57.8757 59.2697 57.8727 60.603C57.8661 63.5517 57.8707 66.5004 57.8707 69.449C57.8704 72.398 57.8677 75.3464 57.8717 78.295C57.8741 79.7794 58.4034 80.3104 59.9037 80.3117C65.7047 80.3164 71.5061 80.3167 77.3071 80.311C78.7524 80.31 79.3091 79.7764 79.3111 78.3577C79.3154 75.727 79.3171 73.0974 79.3174 70.467V68.4997ZM64.3001 76.71H61.1724V67.0794H64.3001V76.71ZM62.7861 65.7034C61.7461 65.7247 60.9667 65.021 60.9511 64.045C60.9347 63.0607 61.6727 62.3464 62.7274 62.325C63.7527 62.304 64.5597 63.0257 64.5831 63.9847C64.6067 64.932 63.8231 65.6817 62.7861 65.7034ZM75.9214 76.7237H72.8277C72.8277 75.2267 72.8344 73.7907 72.8241 72.3547C72.8207 71.876 72.8154 71.392 72.7434 70.9204C72.5754 69.815 71.9927 69.305 71.0414 69.372C70.1247 69.4367 69.4381 70.1684 69.4214 71.184C69.3954 72.7844 69.4141 74.3854 69.4101 75.986C69.4094 76.208 69.3871 76.4297 69.3701 76.728H66.1971V67.1174H69.3697C69.3934 67.4314 69.4174 67.7407 69.4554 68.2394C70.3114 67.211 71.3011 66.7557 72.5271 66.8194C74.3004 66.9114 75.7207 67.9517 75.8757 69.783C76.0677 72.0624 75.9214 74.3697 75.9214 76.7237Z" fill="url(#paint7_linear)"/>
<defs>
<linearGradient id="paint0_linear" x1="0" y1="21.9686" x2="43.2692" y2="21.9686" gradientUnits="userSpaceOnUse">
<stop stop-color="#E5C851"/>
<stop offset="0.2598" stop-color="#FCF9EA"/>
<stop offset="0.513" stop-color="#D1B028"/>
<stop offset="0.7588" stop-color="white"/>
<stop offset="1" stop-color="#E6C954"/>
</linearGradient>
<linearGradient id="paint1_linear" x1="46.7312" y1="21.9686" x2="90.0005" y2="21.9686" gradientUnits="userSpaceOnUse">
<stop stop-color="#E5C851"/>
<stop offset="0.2598" stop-color="#FCF9EA"/>
<stop offset="0.513" stop-color="#D1B028"/>
<stop offset="0.7588" stop-color="white"/>
<stop offset="1" stop-color="#E6C954"/>
</linearGradient>
<linearGradient id="paint2_linear" x1="0" y1="68.699" x2="43.2692" y2="68.699" gradientUnits="userSpaceOnUse">
<stop stop-color="#E5C851"/>
<stop offset="0.2598" stop-color="#FCF9EA"/>
<stop offset="0.513" stop-color="#D1B028"/>
<stop offset="0.7588" stop-color="white"/>
<stop offset="1" stop-color="#E6C954"/>
</linearGradient>
<linearGradient id="paint3_linear" x1="46.7312" y1="68.699" x2="90.0005" y2="68.699" gradientUnits="userSpaceOnUse">
<stop stop-color="#E5C851"/>
<stop offset="0.2598" stop-color="#FCF9EA"/>
<stop offset="0.513" stop-color="#D1B028"/>
<stop offset="0.7588" stop-color="white"/>
<stop offset="1" stop-color="#E6C954"/>
</linearGradient>
<linearGradient id="paint4_linear" x1="11.0996" y1="22.8267" x2="32.6976" y2="22.8267" gradientUnits="userSpaceOnUse">
<stop stop-color="#E5C851"/>
<stop offset="0.2598" stop-color="#FCF9EA"/>
<stop offset="0.513" stop-color="#D1B028"/>
<stop offset="0.7588" stop-color="white"/>
<stop offset="1" stop-color="#E6C954"/>
</linearGradient>
<linearGradient id="paint5_linear" x1="64.2265" y1="23.0689" x2="73.8895" y2="23.0689" gradientUnits="userSpaceOnUse">
<stop stop-color="#E5C851"/>
<stop offset="0.2598" stop-color="#FCF9EA"/>
<stop offset="0.513" stop-color="#D1B028"/>
<stop offset="0.7588" stop-color="white"/>
<stop offset="1" stop-color="#E6C954"/>
</linearGradient>
<linearGradient id="paint6_linear" x1="15.2062" y1="69.6668" x2="28.6443" y2="69.6668" gradientUnits="userSpaceOnUse">
<stop stop-color="#E5C851"/>
<stop offset="0.2598" stop-color="#FCF9EA"/>
<stop offset="0.513" stop-color="#D1B028"/>
<stop offset="0.7588" stop-color="white"/>
<stop offset="1" stop-color="#E6C954"/>
</linearGradient>
<linearGradient id="paint7_linear" x1="57.8695" y1="69.5111" x2="79.3174" y2="69.5111" gradientUnits="userSpaceOnUse">
<stop stop-color="#E5C851"/>
<stop offset="0.2598" stop-color="#FCF9EA"/>
<stop offset="0.513" stop-color="#D1B028"/>
<stop offset="0.7588" stop-color="white"/>
<stop offset="1" stop-color="#E6C954"/>
</linearGradient>
</defs>
</svg>
